# Blender 5.0.1
# www.blender.org
mtllib portal_green.mtl
o portal_green
v -0.200000 1.100000 1.000000
v -0.200000 1.100000 -0.900000
v -0.200000 4.300000 1.000000
v -0.200000 4.300000 0.800000
v -0.200000 4.300000 -0.700000
v -0.200000 4.300000 -0.900000
v -0.200000 4.500000 0.800000
v -0.200000 4.500000 0.600000
v -0.200000 4.500000 -0.500000
v -0.200000 4.500000 -0.700000
v -0.200000 4.700000 0.600000
v -0.200000 4.700000 0.400000
v -0.200000 4.700000 -0.300000
v -0.200000 4.700000 -0.500000
v -0.200000 4.900001 0.400000
v -0.200000 4.900001 0.200000
v -0.200000 4.900001 -0.100000
v -0.200000 4.900001 -0.300000
v -0.200000 5.100000 0.200000
v -0.200000 5.100000 -0.100000
v 0.000000 1.200000 0.900000
v 0.000000 1.200000 -0.800000
v 0.000000 4.200000 0.900000
v 0.000000 4.200000 0.700000
v 0.000000 4.200000 -0.600000
v 0.000000 4.200000 -0.800000
v 0.000000 4.400001 0.700000
v 0.000000 4.400001 0.500000
v 0.000000 4.400001 -0.400000
v 0.000000 4.400001 -0.600000
v 0.000000 4.600000 0.500000
v 0.000000 4.600000 0.300000
v 0.000000 4.600000 -0.200000
v 0.000000 4.600000 -0.400000
v 0.000000 4.800000 0.300000
v 0.000000 4.800000 0.100000
v 0.000000 4.800000 -0.000000
v 0.000000 4.800000 -0.200000
v 0.000000 5.000000 0.100000
v 0.000000 5.000000 -0.000000
v -0.100000 1.200000 0.900000
v -0.100000 1.200000 -0.800000
v -0.100000 4.200000 0.900000
v -0.100000 4.200000 0.700000
v -0.100000 4.200000 -0.600000
v -0.100000 4.200000 -0.800000
v -0.100000 4.400001 0.700000
v -0.100000 4.400001 0.500000
v -0.100000 4.400001 -0.400000
v -0.100000 4.400001 -0.600000
v -0.100000 4.600000 0.500000
v -0.100000 4.600000 0.300000
v -0.100000 4.600000 -0.200000
v -0.100000 4.600000 -0.400000
v -0.100000 4.800000 0.300000
v -0.100000 4.800000 0.100000
v -0.100000 4.800000 -0.000000
v -0.100000 4.800000 -0.200000
v -0.100000 5.000000 0.100000
v -0.100000 5.000000 -0.000000
v 0.100000 1.100000 1.000000
v 0.100000 1.100000 -0.900000
v 0.100000 4.300000 1.000000
v 0.100000 4.300000 0.800000
v 0.100000 4.300000 -0.700000
v 0.100000 4.300000 -0.900000
v 0.100000 4.500000 0.800000
v 0.100000 4.500000 0.600000
v 0.100000 4.500000 -0.500000
v 0.100000 4.500000 -0.700000
v 0.100000 4.700000 0.600000
v 0.100000 4.700000 0.400000
v 0.100000 4.700000 -0.300000
v 0.100000 4.700000 -0.500000
v 0.100000 4.900001 0.400000
v 0.100000 4.900001 0.200000
v 0.100000 4.900001 -0.100000
v 0.100000 4.900001 -0.300000
v 0.100000 5.100000 0.200000
v 0.100000 5.100000 -0.100000
vn -0.0000 1.0000 -0.0000
vn -0.0000 -0.0000 -1.0000
vn -1.0000 -0.0000 -0.0000
vn -0.0000 -1.0000 -0.0000
vn -0.0000 -0.0000 1.0000
vn 1.0000 -0.0000 -0.0000
vt 0.535211 0.591549
vt 0.549296 0.619718
vt 0.549296 0.591549
vt 0.549296 0.211268
vt 0.507042 0.239437
vt 0.549296 0.239437
vt 0.605634 0.577465
vt 0.563380 0.549296
vt 0.563380 0.577465
vt 0.605634 0.605634
vt 0.563380 0.605634
vt 0.535211 0.535211
vt 0.492958 0.507042
vt 0.492958 0.535211
vt 0.507042 0.084507
vt 0.478873 0.211268
vt 0.507042 0.183099
vt 0.704225 0.267606
vt 0.661972 0.000000
vt 0.704225 0.000000
vt 0.619718 0.521127
vt 0.605634 0.549296
vt 0.619718 0.549296
vt 0.563380 0.450704
vt 0.605634 0.000000
vt 0.605634 0.450704
vt 0.605634 0.492958
vt 0.619718 0.492958
vt 0.422535 0.746479
vt 0.000000 0.774648
vt 0.422535 0.563380
vt 0.450704 0.563380
vt 0.492958 0.563380
vt 0.535211 0.478873
vt 0.521127 0.507042
vt 0.535211 0.507042
vt 0.647887 0.450704
vt 0.549296 0.352113
vt 0.535211 0.323944
vt 0.549296 0.323944
vt 0.549296 0.507042
vt 0.549296 0.535211
vt 0.507042 0.563380
vt 0.549296 0.563380
vt 0.563380 0.478873
vt 0.605634 0.478873
vt 0.450704 0.295775
vt 0.478873 0.323944
vt 0.507042 0.450704
vt 0.619718 0.577465
vt 0.619718 0.605634
vt 0.549296 0.000000
vt 0.563380 0.028169
vt 0.563380 0.000000
vt 0.535211 0.183099
vt 0.549296 0.183099
vt 0.563380 0.521127
vt 0.605634 0.521127
vt 0.521127 0.239437
vt 0.478873 0.281690
vt 0.521127 0.281690
vt 0.563380 0.436620
vt 0.549296 0.676056
vt 0.549296 0.436620
vt 0.676056 0.267606
vt 0.661972 0.690141
vt 0.676056 0.690141
vt 0.563380 0.239437
vt 0.521127 0.267606
vt 0.563380 0.267606
vt 0.521127 0.563380
vt 0.535211 0.563380
vt 0.478873 0.591549
vt 0.521127 0.591549
vt 0.507042 0.591549
vt 0.521127 0.619718
vt 0.647887 0.478873
vt 0.549296 0.281690
vt 0.563380 0.309859
vt 0.563380 0.281690
vt 0.478873 0.028169
vt 0.521127 0.000000
vt 0.521127 0.028169
vt 0.619718 0.633803
vt 0.690141 0.690141
vt 0.690141 0.267606
vt 0.535211 0.633803
vt 0.549296 0.647887
vt 0.549296 0.633803
vt 0.549296 0.056338
vt 0.563380 0.084507
vt 0.563380 0.056338
vt 0.549296 0.028169
vt 0.535211 0.000000
vt 0.549296 0.295775
vt 0.507042 0.323944
vt 0.563380 0.633803
vt 0.605634 0.633803
vt 0.521127 0.056338
vt 0.929577 0.901408
vt 0.901408 0.802817
vt 0.873239 0.774648
vt 0.535211 0.619718
vt 0.507042 0.211268
vt 0.563380 0.154930
vt 0.563380 0.112676
vt 0.535211 0.112676
vt 0.535211 0.084507
vt 0.507042 0.056338
vt 0.478873 0.056338
vt 0.450704 0.028169
vt 0.450704 0.000000
vt 0.000000 0.000000
vt 0.000000 0.267606
vt 0.450704 0.267606
vt 0.450704 0.239437
vt 0.478873 0.239437
vt 0.535211 0.154930
vt 0.661972 0.267606
vt 0.478873 0.619718
vt 0.507042 0.619718
vt 0.507042 0.647887
vt 0.535211 0.647887
vt 0.535211 0.661972
vt 0.507042 0.661972
vt 0.507042 0.690141
vt 0.478873 0.690141
vt 0.450704 0.591549
vt 0.478873 0.718310
vt 0.450704 0.718310
vt 0.450704 0.746479
vt 0.000000 0.535211
vt 0.422535 0.535211
vt 0.422535 0.774648
vt 0.450704 0.535211
vt 0.521127 0.478873
vt 0.647887 0.000000
vt 0.535211 0.352113
vt 0.507042 0.535211
vt 0.478873 0.478873
vt 0.478873 0.507042
vt 0.450704 0.507042
vt 0.478873 0.295775
vt 0.507042 0.478873
vt 0.535211 0.422535
vt 0.535211 0.450704
vt 0.563380 0.380282
vt 0.563380 0.422535
vt 0.507042 0.352113
vt 0.535211 0.380282
vt 0.535211 0.211268
vt 0.563380 0.492958
vt 0.563380 0.676056
vt 0.478873 0.563380
vt 0.549296 0.309859
vt 0.478873 0.000000
vt 0.549296 0.084507
vt 0.535211 0.028169
vt 0.507042 0.295775
vt 0.873239 0.746479
vt 0.450704 0.985915
vt 0.873239 0.985915
vt 0.873239 0.957747
vt 0.901408 0.957747
vt 0.901408 0.929577
vt 0.929577 0.929577
vt 0.957747 0.901408
vt 0.957747 0.873239
vt 0.985915 0.873239
vt 0.985915 0.859155
vt 0.957747 0.859155
vt 0.957747 0.830986
vt 0.929577 0.830986
vt 0.929577 0.802817
vt 0.901408 0.774648
s 0
usemtl portal_green_Material
f 44/1/1 23/2/1 24/3/1
f 76/4/1 15/5/1 75/6/1
f 74/7/2 9/8/2 14/9/2
f 70/10/2 5/9/2 10/11/2
f 78/12/2 13/13/2 18/14/2
f 13/15/3 8/16/3 12/17/3
f 61/18/4 2/19/4 62/20/4
f 37/21/2 60/22/2 40/23/2
f 3/24/5 61/25/5 63/26/5
f 52/27/1 31/21/1 32/28/1
f 24/29/6 21/30/6 25/31/6
f 66/14/1 5/32/1 65/33/1
f 25/34/2 50/35/2 30/36/2
f 66/37/2 2/25/2 6/26/2
f 35/38/5 52/39/5 32/40/5
f 33/41/2 58/12/2 38/42/2
f 70/42/1 9/43/1 69/44/1
f 72/26/1 11/45/1 71/46/1
f 65/47/6 69/48/6 72/49/6
f 29/50/2 54/10/2 34/51/2
f 48/52/1 27/53/1 28/54/1
f 46/55/1 25/4/1 26/56/1
f 7/57/5 64/27/5 67/58/5
f 80/59/1 19/60/1 79/61/1
f 22/62/4 41/63/4 42/64/4
f 22/65/2 46/66/2 26/67/2
f 78/68/1 17/69/1 77/70/1
f 54/71/1 33/1/1 34/72/1
f 64/71/1 3/73/1 63/74/1
f 58/75/1 37/76/1 38/74/1
f 80/77/2 17/26/2 20/46/2
f 50/78/1 29/79/1 30/80/1
f 15/81/5 72/82/5 75/83/5
f 31/84/5 48/10/5 28/51/5
f 23/85/5 41/65/5 21/86/5
f 60/87/1 39/88/1 40/89/1
f 56/90/1 35/91/1 36/92/1
f 27/93/5 44/94/5 24/52/5
f 39/50/5 56/22/5 36/23/5
f 68/95/1 7/96/1 67/40/1
f 19/97/5 76/10/5 79/98/5
f 74/53/1 13/99/1 73/92/1
f 11/8/5 68/58/5 71/22/5
f 52/100/3 49/101/3 45/102/3
f 44/1/1 43/103/1 23/2/1
f 76/4/1 16/104/1 15/5/1
f 74/7/2 69/22/2 9/8/2
f 70/10/2 65/7/2 5/9/2
f 78/12/2 73/36/2 13/13/2
f 19/105/3 20/106/3 17/107/3
f 17/107/3 18/108/3 13/15/3
f 13/15/3 14/109/3 9/110/3
f 9/110/3 10/81/3 5/111/3
f 5/111/3 6/112/3 2/113/3
f 2/113/3 1/114/3 3/115/3
f 4/116/3 7/117/3 8/16/3
f 2/113/3 3/115/3 4/116/3
f 9/110/3 5/111/3 2/113/3
f 19/105/3 17/107/3 13/15/3
f 13/15/3 9/110/3 2/113/3
f 2/113/3 4/116/3 8/16/3
f 8/16/3 11/104/3 12/17/3
f 12/17/3 15/55/3 16/118/3
f 16/118/3 19/105/3 13/15/3
f 13/15/3 2/113/3 8/16/3
f 12/17/3 16/118/3 13/15/3
f 61/18/4 1/119/4 2/19/4
f 37/21/2 57/58/2 60/22/2
f 3/24/5 1/54/5 61/25/5
f 52/27/1 51/58/1 31/21/1
f 33/120/6 38/121/6 37/122/6
f 37/122/6 40/123/6 39/124/6
f 36/125/6 35/126/6 32/127/6
f 37/122/6 39/124/6 36/125/6
f 29/128/6 34/73/6 33/120/6
f 33/120/6 37/122/6 36/125/6
f 32/127/6 31/129/6 28/130/6
f 33/120/6 36/125/6 32/127/6
f 25/31/6 30/32/6 29/128/6
f 29/128/6 33/120/6 32/127/6
f 28/130/6 27/131/6 24/29/6
f 29/128/6 32/127/6 28/130/6
f 22/132/6 26/133/6 25/31/6
f 25/31/6 29/128/6 28/130/6
f 24/29/6 23/134/6 21/30/6
f 25/31/6 28/130/6 24/29/6
f 21/30/6 22/132/6 25/31/6
f 66/14/1 6/135/1 5/32/1
f 25/34/2 45/136/2 50/35/2
f 66/37/2 62/137/2 2/25/2
f 35/38/5 55/138/5 52/39/5
f 33/41/2 53/36/2 58/12/2
f 70/42/1 10/139/1 9/43/1
f 72/26/1 12/24/1 11/45/1
f 68/140/6 67/141/6 64/142/6
f 64/142/6 63/135/6 61/132/6
f 61/132/6 62/114/6 66/115/6
f 65/47/6 70/143/6 69/48/6
f 61/132/6 66/115/6 65/47/6
f 68/140/6 64/142/6 61/132/6
f 72/49/6 71/144/6 68/140/6
f 76/145/6 75/146/6 72/49/6
f 80/147/6 79/148/6 76/145/6
f 73/149/6 78/138/6 77/150/6
f 77/150/6 80/147/6 76/145/6
f 72/49/6 68/140/6 61/132/6
f 77/150/6 76/145/6 72/49/6
f 69/48/6 74/96/6 73/149/6
f 73/149/6 77/150/6 72/49/6
f 72/49/6 61/132/6 65/47/6
f 69/48/6 73/149/6 72/49/6
f 29/50/2 49/7/2 54/10/2
f 48/52/1 47/93/1 27/53/1
f 46/55/1 45/151/1 25/4/1
f 7/57/5 4/152/5 64/27/5
f 80/59/1 20/117/1 19/60/1
f 22/62/4 21/153/4 41/63/4
f 22/65/2 42/119/2 46/66/2
f 78/68/1 18/59/1 17/69/1
f 54/71/1 53/74/1 33/1/1
f 64/71/1 4/154/1 3/73/1
f 58/75/1 57/121/1 37/76/1
f 80/77/2 77/37/2 17/26/2
f 50/78/1 49/155/1 29/79/1
f 15/81/5 12/156/5 72/82/5
f 31/84/5 51/98/5 48/10/5
f 23/85/5 43/67/5 41/65/5
f 60/87/1 59/123/1 39/88/1
f 56/90/1 55/157/1 35/91/1
f 27/93/5 47/158/5 44/94/5
f 39/50/5 59/7/5 56/22/5
f 68/95/1 8/159/1 7/96/1
f 19/97/5 16/11/5 76/10/5
f 74/53/1 14/83/1 13/99/1
f 11/8/5 8/57/5 68/58/5
f 46/160/3 42/131/3 41/161/3
f 41/161/3 43/162/3 44/163/3
f 44/163/3 47/164/3 48/165/3
f 48/165/3 51/166/3 52/100/3
f 52/100/3 55/167/3 56/168/3
f 56/168/3 59/169/3 60/170/3
f 57/171/3 58/172/3 53/173/3
f 56/168/3 60/170/3 57/171/3
f 44/163/3 48/165/3 52/100/3
f 52/100/3 56/168/3 57/171/3
f 53/173/3 54/174/3 49/101/3
f 52/100/3 57/171/3 53/173/3
f 41/161/3 44/163/3 52/100/3
f 45/102/3 46/160/3 41/161/3
f 49/101/3 50/175/3 45/102/3
f 52/100/3 53/173/3 49/101/3
f 45/102/3 41/161/3 52/100/3
