# Blender 4.5.3 LTS
# www.blender.org
mtllib Barrier_Wooden.mtl
o Barrier_Wooden
v -0.400000 3.000000 2.800000
v -0.400000 3.300000 2.800000
v -0.300000 0.300000 2.500000
v -0.300000 0.300000 -0.800000
v -0.300000 0.300000 -2.500000
v -0.300000 3.000000 1.400000
v -0.300000 3.000000 0.800000
v -0.300000 3.000000 0.300000
v -0.300000 3.000000 -1.400000
v -0.300000 3.000000 -1.900000
v -0.300000 3.000000 -2.500000
v 0.300000 0.300000 1.900000
v 0.300000 0.300000 0.800000
v 0.300000 0.300000 -0.300000
v 0.300000 0.300000 -1.900000
v 0.300000 3.000000 0.300000
v 0.300000 3.000000 -0.300000
v 0.300000 3.000000 -1.900000
v 0.400000 -0.000000 -2.800000
v 0.400000 3.300000 2.800000
v -0.400000 0.300000 2.800000
v 0.400000 0.000000 2.800000
v 0.300000 3.000000 2.500000
v -0.300000 0.300000 1.400000
v -0.300000 0.300000 0.300000
v 0.300000 0.300000 0.300000
v 0.300000 3.000000 -0.800000
v -0.300000 0.300000 -1.900000
v -0.300000 3.000000 1.900000
v -0.300000 0.300000 -0.300000
v -0.300000 3.000000 -0.300000
v 0.300000 3.000000 -1.400000
v 0.300000 3.000000 -2.500000
v -0.400000 -0.000000 -2.800000
v -0.400000 0.300000 -2.800000
v -0.400000 3.300000 -2.800000
v 0.400000 0.300000 -2.800000
v 0.400000 3.000000 -2.800000
v 0.400000 3.300000 -2.800000
v -0.400000 0.000000 2.800000
v 0.400000 3.000000 2.800000
v -0.300000 3.000000 2.500000
v 0.300000 3.000000 1.900000
v 0.300000 3.000000 1.400000
v 0.300000 3.000000 0.800000
v -0.300000 3.000000 -0.800000
v -0.400000 3.000000 -2.800000
v 0.400000 0.300000 2.800000
v 0.300000 0.300000 2.500000
v -0.300000 0.300000 1.900000
v 0.300000 0.300000 1.400000
v -0.300000 0.300000 0.800000
v 0.300000 0.300000 -0.800000
v -0.300000 0.300000 -1.400000
v 0.300000 0.300000 -1.400000
v 0.300000 0.300000 -2.500000
vn -0.0000 -0.0000 1.0000
vn -1.0000 -0.0000 -0.0000
vn -0.0000 -1.0000 -0.0000
vn -0.0000 1.0000 -0.0000
vn -0.0000 -0.0000 -1.0000
vn 1.0000 -0.0000 -0.0000
vt 0.703704 0.490079
vt 0.779101 0.150794
vt 0.779101 0.490079
vt 0.339286 0.779101
vt 0.678571 0.854497
vt 0.678571 0.779101
vt 0.100529 0.703704
vt 0.113095 0.314153
vt 0.113095 0.389550
vt 0.289021 0.389550
vt 0.301587 0.000000
vt 0.289021 0.314153
vt 1.005291 0.490079
vt 0.929894 0.150794
vt 0.929894 0.490079
vt 1.005291 0.829365
vt 0.929894 0.829365
vt 0.552910 0.000000
vt 0.515212 0.703704
vt 0.515212 0.000000
vt 0.552910 0.565476
vt 0.653439 0.527778
vt 0.653439 0.565476
vt 0.477513 0.703704
vt 0.477513 0.000000
vt 0.289021 0.037698
vt 0.201058 0.000000
vt 0.628307 0.490079
vt 0.703704 0.150794
vt 0.703704 0.490079
vt 0.678571 0.929894
vt 0.339286 1.005291
vt 0.339286 0.929894
vt 0.188492 0.314153
vt 0.188492 0.251323
vt 0.678571 0.703704
vt 0.339286 0.779100
vt 0.339286 0.703704
vt -0.000000 0.854497
vt 0.339286 0.854497
vt 0.552910 0.490079
vt 0.628307 0.150794
vt 0.628307 0.490079
vt -0.000000 1.005291
vt -0.000000 0.929894
vt 0.854497 0.829365
vt 0.779101 0.490079
vt 0.779101 0.829365
vt 0.703704 0.829365
vt 0.779101 0.829365
vt 0.854497 0.150794
vt 0.854497 0.490079
vt 0.213624 0.251323
vt 0.213624 0.175926
vt 0.402116 0.000000
vt 0.301587 0.703704
vt 0.402116 0.703704
vt 0.929894 0.490079
vt 0.854497 0.150794
vt 0.854497 0.490079
vt -0.000000 0.779100
vt 0.892196 0.075397
vt 0.552910 0.150794
vt 0.552910 0.075397
vt 0.929894 0.829365
vt 0.854497 0.829365
vt 0.439815 0.703704
vt 0.439815 0.000000
vt 0.552910 0.527778
vt 0.653439 0.490079
vt 0.653439 0.603175
vt 0.552910 0.603175
vt 0.289021 0.590608
vt 0.289021 0.666005
vt 0.301587 0.703704
vt 0.339286 0.854497
vt 0.678571 0.854497
vt -0.000000 0.703704
vt 0.653439 0.640873
vt 0.552910 0.640873
vt 0.892196 0.000000
vt -0.000000 0.000000
vt 0.100529 0.000000
vt 0.703704 0.150794
vt 0.339286 0.854497
vt 0.113095 0.527778
vt 0.188492 0.527778
vt 0.188492 0.590608
vt 0.113095 0.590608
vt 0.188492 0.389550
vt 0.188492 0.452381
vt 0.113095 0.452381
vt 0.113095 0.666005
vt 0.188492 0.666005
vt 0.201058 0.703704
vt 0.113095 0.113095
vt 0.188492 0.113095
vt 0.188492 0.175926
vt 0.113095 0.175926
vt 0.113095 0.251323
vt 0.213624 0.389550
vt 0.213624 0.314153
vt 0.213624 0.666005
vt 0.213624 0.590608
vt 0.213624 0.527778
vt 0.213624 0.452381
vt 0.289021 0.452381
vt 0.289021 0.527778
vt 0.289021 0.175926
vt 0.289021 0.251323
vt 1.005291 0.150794
vt 0.552910 0.703704
vt 0.213624 0.113095
vt 0.213624 0.037698
vt 0.289021 0.113095
vt 0.628307 0.150794
vt 0.678571 1.005291
vt 0.113095 0.037698
vt 0.188492 0.037698
vt 0.678571 0.779100
vt 0.339286 1.005291
vt 0.779101 0.150794
vt 0.301587 0.000000
vt 0.929894 0.150794
vt 0.892196 0.150794
vt 0.552910 0.490079
vt -0.000000 0.703704
s 0
usemtl Barrier_Wooden_Material.002
f 8/1/1 26/2/1 16/3/1
f 30/4/2 8/5/2 31/6/2
f 1/7/3 31/8/3 8/9/3
f 26/10/4 37/11/4 14/12/4
f 32/13/5 54/14/5 9/15/5
f 33/16/5 5/15/5 11/17/5
f 39/18/6 41/19/6 38/20/6
f 2/21/1 41/22/1 20/23/1
f 37/20/6 22/24/6 19/25/6
f 56/26/4 37/11/4 35/27/4
f 6/28/1 51/29/1 44/30/1
f 33/31/6 15/32/6 56/33/6
f 17/34/3 27/35/3 38/27/3
f 43/36/6 49/37/6 12/38/6
f 54/39/2 46/33/2 9/40/2
f 42/41/1 49/42/1 23/43/1
f 32/33/6 53/44/6 55/45/6
f 43/46/5 50/47/5 29/48/5
f 46/49/1 53/3/1 27/50/1
f 10/47/1 15/51/1 18/52/1
f 35/27/4 4/53/4 54/54/4
f 39/55/4 2/56/4 20/57/4
f 45/58/5 52/59/5 7/60/5
f 52/61/2 6/40/2 7/37/2
f 17/62/6 26/63/6 14/64/6
f 17/65/5 30/60/5 31/66/5
f 34/55/2 21/67/2 35/68/2
f 21/69/1 22/70/1 48/22/1
f 37/71/5 34/21/5 35/72/5
f 12/73/4 49/74/4 48/75/4
f 5/76/2 10/31/2 11/77/2
f 50/78/2 42/37/2 29/38/2
f 39/79/5 47/72/5 36/80/5
f 45/81/6 51/64/6 13/18/6
f 22/7/3 34/82/3 19/83/3
f 47/68/2 2/24/2 36/25/2
f 8/1/1 25/84/1 26/2/1
f 30/4/2 25/85/2 8/5/2
f 6/86/3 44/87/3 43/88/3
f 6/86/3 43/88/3 29/89/3
f 16/90/3 45/91/3 7/92/3
f 8/9/3 16/90/3 7/92/3
f 42/93/3 23/94/3 41/95/3
f 1/7/3 47/83/3 10/96/3
f 10/96/3 18/97/3 32/98/3
f 10/96/3 32/98/3 9/99/3
f 42/93/3 41/95/3 1/7/3
f 29/89/3 42/93/3 1/7/3
f 1/7/3 10/96/3 9/99/3
f 1/7/3 9/99/3 46/100/3
f 6/86/3 29/89/3 1/7/3
f 7/92/3 6/86/3 1/7/3
f 1/7/3 46/100/3 31/8/3
f 8/9/3 7/92/3 1/7/3
f 25/101/4 30/102/4 35/27/4
f 35/27/4 21/95/4 3/103/4
f 35/27/4 3/103/4 50/104/4
f 35/27/4 50/104/4 24/105/4
f 35/27/4 24/105/4 52/106/4
f 25/101/4 35/27/4 52/106/4
f 13/107/4 51/108/4 48/75/4
f 25/101/4 52/106/4 13/107/4
f 26/10/4 25/101/4 13/107/4
f 13/107/4 48/75/4 37/11/4
f 37/11/4 55/109/4 53/110/4
f 37/11/4 53/110/4 14/12/4
f 26/10/4 13/107/4 37/11/4
f 32/13/5 55/111/5 54/14/5
f 33/16/5 56/13/5 5/15/5
f 39/18/6 20/112/6 41/19/6
f 2/21/1 1/69/1 41/22/1
f 37/20/6 48/19/6 22/24/6
f 35/27/4 28/113/4 5/114/4
f 56/26/4 15/115/4 37/11/4
f 35/27/4 5/114/4 56/26/4
f 6/28/1 24/116/1 51/29/1
f 33/31/6 18/117/6 15/32/6
f 17/34/3 31/8/3 46/100/3
f 17/34/3 46/100/3 27/35/3
f 11/118/3 10/96/3 47/83/3
f 38/27/3 41/95/3 23/94/3
f 38/27/3 23/94/3 43/88/3
f 11/118/3 47/83/3 38/27/3
f 33/119/3 11/118/3 38/27/3
f 38/27/3 43/88/3 44/87/3
f 38/27/3 44/87/3 45/91/3
f 18/97/3 33/119/3 38/27/3
f 32/98/3 18/97/3 38/27/3
f 38/27/3 45/91/3 16/90/3
f 38/27/3 16/90/3 17/34/3
f 27/35/3 32/98/3 38/27/3
f 43/36/6 23/120/6 49/37/6
f 54/39/2 4/45/2 46/33/2
f 42/41/1 3/63/1 49/42/1
f 32/33/6 27/121/6 53/44/6
f 43/46/5 12/52/5 50/47/5
f 46/49/1 4/1/1 53/3/1
f 10/47/1 28/122/1 15/51/1
f 30/102/4 14/12/4 53/110/4
f 30/102/4 53/110/4 4/53/4
f 55/109/4 37/11/4 15/115/4
f 54/54/4 55/109/4 15/115/4
f 54/54/4 15/115/4 28/113/4
f 35/27/4 30/102/4 4/53/4
f 54/54/4 28/113/4 35/27/4
f 39/55/4 36/123/4 2/56/4
f 45/58/5 13/124/5 52/59/5
f 52/61/2 24/39/2 6/40/2
f 17/62/6 16/125/6 26/63/6
f 17/65/5 14/58/5 30/60/5
f 34/55/2 40/57/2 21/67/2
f 21/69/1 40/126/1 22/70/1
f 37/71/5 19/23/5 34/21/5
f 24/105/4 50/104/4 12/73/4
f 49/74/4 3/103/4 21/95/4
f 51/108/4 24/105/4 12/73/4
f 49/74/4 21/95/4 48/75/4
f 48/75/4 51/108/4 12/73/4
f 5/76/2 28/33/2 10/31/2
f 50/78/2 3/61/2 42/37/2
f 39/79/5 38/71/5 47/72/5
f 45/81/6 44/62/6 51/64/6
f 22/7/3 40/127/3 34/82/3
f 47/68/2 1/67/2 2/24/2
