# MagicaVoxel @ Ephtracy

# group
o 

# material
mtllib Throne.mtl
usemtl palette

# normals
vn -1 0 0
vn 1 0 0
vn 0 0 1
vn 0 0 -1
vn 0 -1 0
vn 0 1 0

# texcoords
vt 0.146484 0.5
vt 0.431641 0.5

# verts
v -3.1 0 3.5
v -3.1 0 -1.5
v -3.1 3.4 3.5
v -3.1 3.4 -1.1
v -3.1 6.9 -1.1
v -3.1 6.9 -1.5
v -2.7 6.9 -1.1
v -2.7 6.9 -1.5
v -2.7 7.3 -1.1
v -2.7 7.3 -1.5
v -2.5 1.5 3.3
v -2.5 1.5 -0.9
v -2.5 1.9 3.3
v -2.5 1.9 -0.9
v -2.3 7.3 -1.1
v -2.3 7.3 -1.5
v -2.3 7.7 -1.1
v -2.3 7.7 -1.5
v -1.9 7.7 -1.1
v -1.9 7.7 -1.5
v -1.9 8.1 -1.1
v -1.9 8.1 -1.5
v 1.3 1.5 3.5
v 1.3 1.5 -1.1
v 1.3 3.4 3.5
v 1.3 3.4 -1.1
v -2.7 1.5 3.5
v -2.7 1.5 -1.1
v -2.7 3.4 3.5
v -2.7 3.4 -1.1
v 0.5 7.7 -1.1
v 0.5 7.7 -1.5
v 0.5 8.1 -1.1
v 0.5 8.1 -1.5
v 0.9 7.3 -1.1
v 0.9 7.3 -1.5
v 0.9 7.7 -1.1
v 0.9 7.7 -1.5
v 1.1 1.5 3.3
v 1.1 1.5 -0.9
v 1.1 1.9 3.3
v 1.1 1.9 -0.9
v 1.3 6.9 -1.1
v 1.3 6.9 -1.5
v 1.3 7.3 -1.1
v 1.3 7.3 -1.5
v 1.7 0 3.5
v 1.7 0 -1.5
v 1.7 3.4 3.5
v 1.7 3.4 -1.1
v 1.7 6.9 -1.1
v 1.7 6.9 -1.5
v -3.1 0 3.5
v -3.1 3.4 3.5
v -2.7 1.5 3.5
v -2.7 3.4 3.5
v 1.3 1.5 3.5
v 1.3 3.4 3.5
v 1.7 0 3.5
v 1.7 3.4 3.5
v -2.5 1.5 3.3
v -2.5 1.9 3.3
v 1.1 1.5 3.3
v 1.1 1.9 3.3
v -3.1 3.4 -1.1
v -3.1 6.9 -1.1
v -2.7 1.5 -1.1
v -2.7 3.4 -1.1
v -2.7 6.9 -1.1
v -2.7 7.3 -1.1
v -2.4 1.9 -1.1
v -2.4 6.6 -1.1
v -2.3 7.3 -1.1
v -2.3 7.7 -1.1
v -2 6.6 -1.1
v -2 7.1 -1.1
v -1.9 7.7 -1.1
v -1.9 8.1 -1.1
v -1.4 7.1 -1.1
v -1.4 7.7 -1.1
v 0 7.1 -1.1
v 0 7.7 -1.1
v 0.5 7.7 -1.1
v 0.5 8.1 -1.1
v 0.6 6.6 -1.1
v 0.6 7.1 -1.1
v 0.9 7.3 -1.1
v 0.9 7.7 -1.1
v 1 1.9 -1.1
v 1 6.6 -1.1
v 1.3 1.5 -1.1
v 1.3 3.4 -1.1
v 1.3 6.9 -1.1
v 1.3 7.3 -1.1
v 1.7 3.4 -1.1
v 1.7 6.9 -1.1
v -2.5 1.5 -0.9
v -2.5 1.9 -0.9
v 1.1 1.5 -0.9
v 1.1 1.9 -0.9
v -3.1 0 -1.5
v -3.1 6.9 -1.5
v -2.7 6.9 -1.5
v -2.7 7.3 -1.5
v -2.3 7.3 -1.5
v -2.3 7.7 -1.5
v -1.9 7.7 -1.5
v -1.9 8.1 -1.5
v 0.5 7.7 -1.5
v 0.5 8.1 -1.5
v 0.9 7.3 -1.5
v 0.9 7.7 -1.5
v 1.3 6.9 -1.5
v 1.3 7.3 -1.5
v 1.7 0 -1.5
v 1.7 6.9 -1.5
v -3.1 0 3.5
v 1.7 0 3.5
v -3.1 0 -1.5
v 1.7 0 -1.5
v -2.7 1.5 3.5
v 1.3 1.5 3.5
v -2.5 1.5 3.3
v 1.1 1.5 3.3
v -2.5 1.5 -0.9
v 1.1 1.5 -0.9
v -2.7 1.5 -1.1
v 1.3 1.5 -1.1
v -2.5 1.9 3.3
v 1.1 1.9 3.3
v -2.5 1.9 -0.9
v 1.1 1.9 -0.9
v -3.1 3.4 3.5
v -2.7 3.4 3.5
v 1.3 3.4 3.5
v 1.7 3.4 3.5
v -3.1 3.4 -1.1
v -2.7 3.4 -1.1
v 1.3 3.4 -1.1
v 1.7 3.4 -1.1
v -3.1 6.9 -1.1
v -2.7 6.9 -1.1
v 1.3 6.9 -1.1
v 1.7 6.9 -1.1
v -3.1 6.9 -1.5
v -2.7 6.9 -1.5
v 1.3 6.9 -1.5
v 1.7 6.9 -1.5
v -2.7 7.3 -1.1
v -2.3 7.3 -1.1
v 0.9 7.3 -1.1
v 1.3 7.3 -1.1
v -2.7 7.3 -1.5
v -2.3 7.3 -1.5
v 0.9 7.3 -1.5
v 1.3 7.3 -1.5
v -2.3 7.7 -1.1
v -1.9 7.7 -1.1
v 0.5 7.7 -1.1
v 0.9 7.7 -1.1
v -2.3 7.7 -1.5
v -1.9 7.7 -1.5
v 0.5 7.7 -1.5
v 0.9 7.7 -1.5
v -1.9 8.1 -1.1
v 0.5 8.1 -1.1
v -1.9 8.1 -1.5
v 0.5 8.1 -1.5

# faces
f 3/2/1 2/2/1 1/2/1
f 4/2/1 2/2/1 3/2/1
f 5/2/1 2/2/1 4/2/1
f 6/2/1 2/2/1 5/2/1
f 9/2/1 8/2/1 7/2/1
f 10/2/1 8/2/1 9/2/1
f 13/1/1 12/1/1 11/1/1
f 14/1/1 12/1/1 13/1/1
f 17/2/1 16/2/1 15/2/1
f 18/2/1 16/2/1 17/2/1
f 21/2/1 20/2/1 19/2/1
f 22/2/1 20/2/1 21/2/1
f 25/2/1 24/2/1 23/2/1
f 26/2/1 24/2/1 25/2/1
f 27/2/2 28/2/2 29/2/2
f 29/2/2 28/2/2 30/2/2
f 31/2/2 32/2/2 33/2/2
f 33/2/2 32/2/2 34/2/2
f 35/2/2 36/2/2 37/2/2
f 37/2/2 36/2/2 38/2/2
f 39/1/2 40/1/2 41/1/2
f 41/1/2 40/1/2 42/1/2
f 43/2/2 44/2/2 45/2/2
f 45/2/2 44/2/2 46/2/2
f 47/2/2 48/2/2 49/2/2
f 49/2/2 48/2/2 50/2/2
f 50/2/2 48/2/2 51/2/2
f 51/2/2 48/2/2 52/2/2
f 55/2/3 54/2/3 53/2/3
f 56/2/3 54/2/3 55/2/3
f 57/2/3 55/2/3 53/2/3
f 59/2/3 57/2/3 53/2/3
f 59/2/3 58/2/3 57/2/3
f 60/2/3 58/2/3 59/2/3
f 63/1/3 62/1/3 61/1/3
f 64/1/3 62/1/3 63/1/3
f 68/2/3 66/2/3 65/2/3
f 69/2/3 66/2/3 68/2/3
f 71/2/3 68/2/3 67/2/3
f 71/2/3 70/2/3 69/2/3
f 71/2/3 69/2/3 68/2/3
f 72/2/3 70/2/3 71/2/3
f 73/2/3 70/2/3 72/2/3
f 75/1/3 72/1/3 71/1/3
f 75/2/3 74/2/3 73/2/3
f 75/2/3 73/2/3 72/2/3
f 76/2/3 74/2/3 75/2/3
f 77/2/3 74/2/3 76/2/3
f 79/1/3 76/1/3 75/1/3
f 79/2/3 78/2/3 77/2/3
f 79/2/3 77/2/3 76/2/3
f 80/2/3 78/2/3 79/2/3
f 81/1/3 79/1/3 75/1/3
f 81/1/3 80/1/3 79/1/3
f 82/2/3 78/2/3 80/2/3
f 82/1/3 80/1/3 81/1/3
f 83/2/3 82/2/3 81/2/3
f 83/2/3 78/2/3 82/2/3
f 84/2/3 78/2/3 83/2/3
f 85/1/3 75/1/3 71/1/3
f 85/1/3 81/1/3 75/1/3
f 86/2/3 83/2/3 81/2/3
f 86/1/3 81/1/3 85/1/3
f 87/2/3 86/2/3 85/2/3
f 87/2/3 83/2/3 86/2/3
f 88/2/3 83/2/3 87/2/3
f 89/2/3 71/2/3 67/2/3
f 89/1/3 85/1/3 71/1/3
f 90/2/3 87/2/3 85/2/3
f 90/1/3 85/1/3 89/1/3
f 91/2/3 89/2/3 67/2/3
f 91/2/3 90/2/3 89/2/3
f 92/2/3 90/2/3 91/2/3
f 93/2/3 87/2/3 90/2/3
f 93/2/3 90/2/3 92/2/3
f 94/2/3 87/2/3 93/2/3
f 95/2/3 93/2/3 92/2/3
f 96/2/3 93/2/3 95/2/3
f 97/1/4 98/1/4 99/1/4
f 99/1/4 98/1/4 100/1/4
f 101/2/4 102/2/4 103/2/4
f 103/2/4 104/2/4 105/2/4
f 105/2/4 106/2/4 107/2/4
f 105/2/4 107/2/4 109/2/4
f 107/2/4 108/2/4 109/2/4
f 109/2/4 108/2/4 110/2/4
f 103/2/4 105/2/4 111/2/4
f 105/2/4 109/2/4 111/2/4
f 111/2/4 109/2/4 112/2/4
f 101/2/4 103/2/4 113/2/4
f 103/2/4 111/2/4 113/2/4
f 113/2/4 111/2/4 114/2/4
f 101/2/4 113/2/4 115/2/4
f 115/2/4 113/2/4 116/2/4
f 119/2/5 118/2/5 117/2/5
f 120/2/5 118/2/5 119/2/5
f 121/2/6 122/2/6 123/2/6
f 123/2/6 122/2/6 124/2/6
f 121/2/6 123/2/6 125/2/6
f 124/2/6 122/2/6 126/2/6
f 121/2/6 125/2/6 127/2/6
f 125/2/6 126/2/6 127/2/6
f 126/2/6 122/2/6 128/2/6
f 127/2/6 126/2/6 128/2/6
f 129/1/6 130/1/6 131/1/6
f 131/1/6 130/1/6 132/1/6
f 133/2/6 134/2/6 137/2/6
f 137/2/6 134/2/6 138/2/6
f 135/2/6 136/2/6 139/2/6
f 139/2/6 136/2/6 140/2/6
f 141/2/6 142/2/6 145/2/6
f 145/2/6 142/2/6 146/2/6
f 143/2/6 144/2/6 147/2/6
f 147/2/6 144/2/6 148/2/6
f 149/2/6 150/2/6 153/2/6
f 153/2/6 150/2/6 154/2/6
f 151/2/6 152/2/6 155/2/6
f 155/2/6 152/2/6 156/2/6
f 157/2/6 158/2/6 161/2/6
f 161/2/6 158/2/6 162/2/6
f 159/2/6 160/2/6 163/2/6
f 163/2/6 160/2/6 164/2/6
f 165/2/6 166/2/6 167/2/6
f 167/2/6 166/2/6 168/2/6
