# Blender 5.0.1
# www.blender.org
mtllib Torch.mtl
o Torch
v -2.400000 6.700000 1.899999
v -2.400000 6.700000 0.400000
v -2.400000 10.800001 1.899999
v -2.400000 10.800001 0.399999
v -1.600000 -0.800000 -4.000000
v -1.600000 -0.800000 -4.800000
v -1.600000 10.800001 -4.000001
v -1.600000 10.800001 -4.800001
v -0.600000 8.300001 1.999999
v -0.600000 8.300001 0.399999
v -0.600000 10.100000 1.999999
v -0.600000 10.100000 0.399999
v -0.400000 0.100000 1.800000
v -0.400000 0.100000 0.500000
v -0.400000 4.000000 -2.800000
v -0.400000 4.000000 -4.000000
v -0.400000 4.400001 0.500000
v -0.400000 4.400001 -2.800000
v -0.400000 5.600000 0.500000
v -0.400000 5.600000 -2.800000
v -0.400000 6.000000 -2.800000
v -0.400000 6.000000 -4.000000
v -0.400000 6.700000 4.199999
v -0.400000 6.700000 1.899999
v -0.400000 6.700000 1.799999
v -0.400000 6.700000 0.499999
v -0.400000 6.700000 0.400000
v -0.400000 6.700000 -1.900000
v -0.400000 8.000000 3.400000
v -0.400000 8.000000 1.899999
v -0.400000 8.000000 0.399999
v -0.400000 8.000000 -1.100001
v -0.400000 10.700000 4.199999
v -0.400000 10.700000 3.400000
v -0.400000 10.700000 -1.100001
v -0.400000 10.700000 -1.900001
v 0.500000 5.200000 -0.800000
v 0.500000 5.200000 -0.900000
v 0.500000 5.500000 -0.800000
v 0.500000 5.500000 -0.900000
v 1.700000 0.300000 -4.200000
v 1.700000 0.300000 -4.400001
v 1.700000 10.100000 -4.200001
v 1.700000 10.100000 -4.400002
v 2.100000 8.000000 1.899999
v 2.100000 8.000000 0.399999
v 2.100000 10.800001 1.899999
v 2.100000 10.800001 0.399999
v -1.700000 8.000000 1.899999
v -1.700000 8.000000 0.399999
v -1.700000 10.800001 1.899999
v -1.700000 10.800001 0.399999
v 0.400000 5.200000 -0.800000
v 0.400000 5.200000 -0.900000
v 0.400000 5.500000 -0.800000
v 0.400000 5.500000 -0.900000
v 0.800000 0.100000 1.800000
v 0.800000 0.100000 0.500000
v 0.800000 4.000000 -2.800000
v 0.800000 4.000000 -4.000000
v 0.800000 4.400001 0.500000
v 0.800000 4.400001 -2.800000
v 0.800000 5.600000 0.500000
v 0.800000 5.600000 -2.800000
v 0.800000 6.000000 -2.800000
v 0.800000 6.000000 -4.000000
v 0.800000 6.700000 4.199999
v 0.800000 6.700000 1.899999
v 0.800000 6.700000 1.799999
v 0.800000 6.700000 0.499999
v 0.800000 6.700000 0.400000
v 0.800000 6.700000 -1.900000
v 0.800000 8.000000 3.400000
v 0.800000 8.000000 1.899999
v 0.800000 8.000000 0.399999
v 0.800000 8.000000 -1.100001
v 0.800000 10.700000 4.199999
v 0.800000 10.700000 3.400000
v 0.800000 10.700000 -1.100001
v 0.800000 10.700000 -1.900001
v 1.000000 8.300001 1.999999
v 1.000000 8.300001 0.399999
v 1.000000 10.100000 1.999999
v 1.000000 10.100000 0.399999
v 1.600000 0.300000 -4.200000
v 1.600000 0.300000 -4.400001
v 1.600000 10.100000 -4.200001
v 1.600000 10.100000 -4.400002
v 2.000000 -0.800000 -4.000000
v 2.000000 -0.800000 -4.800000
v 2.000000 10.800001 -4.000001
v 2.000000 10.800001 -4.800001
v 2.800000 6.700000 1.899999
v 2.800000 6.700000 0.400000
v 2.800000 10.800001 1.899999
v 2.800000 10.800001 0.399999
vn -0.0000 -1.0000 -0.0000
vn 1.0000 -0.0000 -0.0000
vn -1.0000 -0.0000 -0.0000
vn -0.0000 -0.0000 1.0000
vn -0.0000 1.0000 -0.0000
vn -0.0000 -0.0000 -1.0000
vt 0.000000 0.740385
vt 0.096154 0.673077
vt 0.096154 0.735577
vt 0.677885 0.552885
vt 0.663462 0.548077
vt 0.677885 0.548077
vt 0.538462 0.850962
vt 0.625000 0.927885
vt 0.625000 0.850962
vt 0.875000 0.947115
vt 0.932692 0.754808
vt 0.932692 0.947115
vt 0.711538 0.850962
vt 0.711538 0.927885
vt 0.913462 0.514423
vt 0.855769 0.552885
vt 0.913462 0.552885
vt 0.932692 0.865385
vt 0.990385 0.812500
vt 0.932692 0.812500
vt 0.971154 0.548077
vt 0.913462 0.706731
vt 0.971154 0.706731
vt 0.971154 0.389423
vt 0.913462 0.197115
vt 0.913462 0.389423
vt 0.759615 0.221154
vt 0.793269 0.283654
vt 0.855769 0.221154
vt 0.610577 0.057692
vt 0.533654 0.000000
vt 0.552885 0.057692
vt 0.836538 0.528846
vt 0.663462 0.490385
vt 0.836538 0.490385
vt 0.250000 0.740385
vt 0.153846 0.673077
vt 0.153846 0.668269
vt 0.855769 0.514423
vt 0.855769 0.197115
vt 0.701923 0.548077
vt 0.697115 0.552885
vt 0.697115 0.548077
vt 0.807692 0.812500
vt 0.250000 0.850962
vt 0.250000 0.812500
vt 0.875000 0.961538
vt 0.817308 0.754808
vt 0.817308 0.961538
vt 0.346154 0.557692
vt 0.173077 0.000000
vt 0.173077 0.557692
vt 0.721154 0.528846
vt 0.721154 0.548077
vt 0.879808 0.620192
vt 0.817308 0.557692
vt 0.913462 0.557692
vt 0.057692 0.326923
vt 0.115385 0.326923
vt 0.975962 0.197115
vt 0.971154 0.668269
vt 0.975962 0.668269
vt 0.365385 0.980769
vt 0.307692 0.850962
vt 0.307692 0.980769
vt 0.697115 0.283654
vt 0.663462 0.418269
vt 0.663462 0.221154
vt 0.798077 0.418269
vt 0.134615 0.985577
vt 0.076923 0.923077
vt 0.134615 0.923077
vt 0.629808 0.668269
vt 0.764423 0.740385
vt 0.764423 0.668269
vt 0.692308 0.548077
vt 0.692308 0.552885
vt 0.495192 0.596154
vt 0.625000 0.557692
vt 0.432692 0.557692
vt 0.730769 0.538462
vt 0.725962 0.548077
vt 0.725962 0.538462
vt 0.250000 0.774038
vt 0.807692 0.774038
vt 0.432692 0.759615
vt 0.490385 0.740385
vt 0.490385 0.759615
vt 0.817308 0.596154
vt 0.687500 0.596154
vt 0.980769 0.668269
vt 0.980769 0.197115
vt 0.913462 0.975962
vt 0.442308 0.966346
vt 0.913462 0.966346
vt 0.596154 0.927885
vt 0.538462 0.966346
vt 0.596154 0.966346
vt 0.312500 0.701923
vt 0.370192 0.629808
vt 0.312500 0.629808
vt 0.951923 0.000000
vt 0.855769 0.062500
vt 0.918269 0.062500
vt 0.725962 0.182692
vt 0.831731 0.418269
vt 0.798077 0.490385
vt 0.831731 0.490385
vt 0.798077 0.668269
vt 0.798077 0.740385
vt 0.442308 0.985577
vt 0.913462 0.985577
vt 0.432692 0.668269
vt 0.629808 0.740385
vt 0.725962 0.072115
vt 0.663462 0.000000
vt 0.663462 0.110577
vt 0.250000 0.980769
vt 0.442308 0.975962
vt 0.365385 0.889423
vt 0.365385 0.975962
vt 0.711538 0.937500
vt 0.788462 0.850962
vt 0.788462 0.937500
vt 0.725962 0.557692
vt 0.721154 0.543269
vt 0.725962 0.543269
vt 0.519231 0.966346
vt 0.442308 0.889423
vt 0.519231 0.889423
vt 0.610577 0.495192
vt 0.663462 0.557692
vt 0.552885 0.495192
vt 0.000000 1.000000
vt 0.076923 1.000000
vt 0.538462 0.889423
vt 0.192308 0.980769
vt 0.192308 0.923077
vt 0.000000 0.000000
vt 0.057692 0.230769
vt 0.725962 0.528846
vt 0.730769 0.528846
vt 0.197115 0.850962
vt 0.000000 0.923077
vt 0.000000 0.850962
vt 0.990385 0.754808
vt 0.153846 0.735577
vt 0.153846 0.740385
vt 0.153846 0.850962
vt 0.096154 0.850962
vt 0.153846 0.557692
vt 0.096154 0.668269
vt 0.096154 0.557692
vt 0.000000 0.668269
vt 0.096154 0.740385
vt 0.663462 0.552885
vt 0.538462 0.927885
vt 0.875000 0.754808
vt 0.990385 0.865385
vt 0.913462 0.548077
vt 0.971154 0.197115
vt 0.759615 0.418269
vt 0.793269 0.418269
vt 0.855769 0.283654
vt 0.552885 0.216346
vt 0.346154 0.216346
vt 0.346154 0.278846
vt 0.663462 0.278846
vt 0.663462 0.216346
vt 0.610577 0.216346
vt 0.629808 0.057692
vt 0.629808 0.000000
vt 0.533654 0.057692
vt 0.663462 0.528846
vt 0.250000 0.668269
vt 0.701923 0.552885
vt 0.807692 0.850962
vt 0.346154 0.000000
vt 0.913462 0.754808
vt 0.879808 0.754808
vt 0.817308 0.620192
vt 0.000000 0.557692
vt 0.365385 0.850962
vt 0.759615 0.283654
vt 0.697115 0.418269
vt 0.076923 0.985577
vt 0.495192 0.668269
vt 0.625000 0.596154
vt 0.730769 0.548077
vt 0.432692 0.740385
vt 0.687500 0.668269
vt 0.625000 0.668269
vt 0.312500 0.774038
vt 0.370192 0.774038
vt 0.370192 0.701923
vt 0.432692 0.701923
vt 0.432692 0.629808
vt 0.250000 0.629808
vt 0.250000 0.701923
vt 0.370192 0.557692
vt 0.312500 0.557692
vt 0.918269 0.197115
vt 0.951923 0.197115
vt 0.855769 0.000000
vt 0.725962 0.110577
vt 0.855769 0.182692
vt 0.855769 0.110577
vt 0.855769 0.072115
vt 0.725962 0.000000
vt 0.721154 0.557692
vt 0.533654 0.278846
vt 0.629808 0.278846
vt 0.629808 0.336538
vt 0.610577 0.336538
vt 0.552885 0.336538
vt 0.533654 0.336538
vt 0.346154 0.495192
vt 0.663462 0.495192
vt 0.134615 0.980769
vt 0.115385 0.230769
vt 0.197115 0.923077
s 0
usemtl Torch_Material
f 1/1/1 26/2/1 25/3/1
f 39/4/2 38/5/2 40/6/2
f 10/7/3 11/8/3 12/9/3
f 33/10/4 67/11/4 77/12/4
f 81/8/2 84/13/2 83/14/2
f 80/15/5 35/16/5 79/17/5
f 26/18/6 63/19/6 19/20/6
f 64/21/5 19/22/5 63/23/5
f 80/24/6 28/25/6 36/26/6
f 2/27/6 50/28/6 27/29/6
f 20/30/3 16/31/3 18/32/3
f 89/33/1 6/34/1 90/35/1
f 93/36/1 70/37/1 71/38/1
f 57/25/4 25/39/4 13/40/4
f 38/41/1 53/42/1 54/43/1
f 92/44/2 89/45/2 90/46/2
f 61/47/6 14/48/6 17/49/6
f 92/50/6 6/51/6 8/52/6
f 18/5/4 59/53/4 62/54/4
f 45/55/4 68/56/4 93/57/4
f 91/52/4 22/58/4 66/59/4
f 42/60/6 88/61/6 44/62/6
f 78/63/6 29/64/6 34/65/6
f 49/66/4 3/67/4 1/68/4
f 52/69/2 49/34/2 50/67/2
f 57/70/1 14/71/1 58/72/1
f 46/73/3 47/74/3 48/75/3
f 56/76/3 53/4/3 55/77/3
f 32/78/3 36/79/3 28/80/3
f 42/81/1 85/82/1 86/83/1
f 6/84/3 7/44/3 8/85/3
f 21/86/4 64/87/4 65/88/4
f 72/79/2 79/89/2 76/90/2
f 43/91/4 85/60/4 41/92/4
f 43/93/2 42/94/2 44/95/2
f 78/96/5 33/97/5 77/98/5
f 30/99/5 75/100/5 31/101/5
f 94/102/6 75/103/6 46/104/6
f 73/105/2 77/29/2 67/68/2
f 52/106/5 3/107/5 51/108/5
f 96/109/5 47/74/5 95/110/5
f 88/93/3 85/111/3 87/112/3
f 2/113/3 3/114/3 4/73/3
f 29/115/3 24/116/3 23/117/3
f 35/118/4 76/64/4 79/65/4
f 84/119/6 10/120/6 12/121/6
f 11/122/4 81/123/4 83/124/4
f 39/125/4 53/126/4 37/127/4
f 81/128/1 10/129/1 82/130/1
f 61/21/1 18/26/1 62/24/1
f 63/131/2 69/132/2 61/133/2
f 84/71/5 11/134/5 83/135/5
f 92/7/5 7/120/5 91/136/5
f 56/76/5 39/42/5 40/43/5
f 59/137/1 16/72/1 60/138/1
f 5/139/4 89/51/4 16/140/4
f 88/141/5 43/81/5 44/142/5
f 96/143/2 93/144/2 94/145/2
f 38/141/6 56/126/6 40/127/6
f 66/146/5 21/20/5 65/19/5
f 25/3/1 69/147/1 93/36/1
f 68/148/1 67/149/1 23/150/1
f 25/3/1 93/36/1 68/148/1
f 71/38/1 70/37/1 26/2/1
f 72/151/1 71/38/1 26/2/1
f 27/152/1 28/153/1 72/151/1
f 1/1/1 2/154/1 27/152/1
f 68/148/1 23/150/1 24/155/1
f 27/152/1 72/151/1 26/2/1
f 25/3/1 68/148/1 24/155/1
f 1/1/1 27/152/1 26/2/1
f 25/3/1 24/155/1 1/1/1
f 39/4/2 37/156/2 38/5/2
f 10/7/3 9/157/3 11/8/3
f 33/10/4 23/158/4 67/11/4
f 81/8/2 82/9/2 84/13/2
f 80/15/5 36/39/5 35/16/5
f 26/18/6 70/159/6 63/19/6
f 64/21/5 20/160/5 19/22/5
f 80/24/6 72/161/6 28/25/6
f 2/27/6 4/162/6 52/163/6
f 50/28/6 31/164/6 27/29/6
f 2/27/6 52/163/6 50/28/6
f 17/165/3 14/166/3 13/167/3
f 13/167/3 25/168/3 26/169/3
f 13/167/3 26/169/3 19/170/3
f 17/165/3 13/167/3 19/170/3
f 20/30/3 21/171/3 22/172/3
f 17/165/3 19/170/3 20/30/3
f 16/31/3 15/173/3 18/32/3
f 18/32/3 17/165/3 20/30/3
f 20/30/3 22/172/3 16/31/3
f 89/33/1 5/174/1 6/34/1
f 71/38/1 94/175/1 93/36/1
f 93/36/1 69/147/1 70/37/1
f 57/25/4 69/15/4 25/39/4
f 38/41/1 37/176/1 53/42/1
f 92/44/2 91/177/2 89/45/2
f 61/47/6 58/158/6 14/48/6
f 92/50/6 90/178/6 6/51/6
f 18/5/4 15/174/4 59/53/4
f 93/57/4 95/179/4 47/180/4
f 45/55/4 74/181/4 68/56/4
f 93/57/4 47/180/4 45/55/4
f 91/52/4 7/182/4 22/58/4
f 42/60/6 86/161/6 88/61/6
f 78/63/6 73/183/6 29/64/6
f 1/68/4 24/27/4 30/184/4
f 49/66/4 51/185/4 3/67/4
f 1/68/4 30/184/4 49/66/4
f 52/69/2 51/107/2 49/34/2
f 57/70/1 13/186/1 14/71/1
f 46/73/3 45/114/3 47/74/3
f 56/76/3 54/6/3 53/4/3
f 28/80/3 27/113/3 31/187/3
f 32/78/3 35/188/3 36/79/3
f 28/80/3 31/187/3 32/78/3
f 42/81/1 41/189/1 85/82/1
f 6/84/3 5/46/3 7/44/3
f 21/86/4 20/190/4 64/87/4
f 75/191/2 71/192/2 72/79/2
f 72/79/2 80/56/2 79/89/2
f 76/90/2 75/191/2 72/79/2
f 43/91/4 87/62/4 85/60/4
f 43/93/2 41/119/2 42/94/2
f 78/96/5 34/157/5 33/97/5
f 30/99/5 29/193/5 73/194/5
f 74/195/5 45/196/5 46/197/5
f 30/99/5 73/194/5 74/195/5
f 50/198/5 49/199/5 30/99/5
f 76/200/5 32/201/5 31/101/5
f 31/101/5 50/198/5 30/99/5
f 30/99/5 74/195/5 46/197/5
f 75/100/5 76/200/5 31/101/5
f 30/99/5 46/197/5 75/100/5
f 48/202/6 96/203/6 94/102/6
f 94/102/6 71/204/6 75/103/6
f 46/104/6 48/202/6 94/102/6
f 67/68/2 68/117/2 74/205/2
f 73/105/2 78/206/2 77/29/2
f 67/68/2 74/205/2 73/105/2
f 52/106/5 4/69/5 3/107/5
f 96/109/5 48/75/5 47/74/5
f 88/93/3 86/119/3 85/111/3
f 2/113/3 1/190/3 3/114/3
f 23/117/3 33/207/3 34/208/3
f 29/115/3 30/209/3 24/116/3
f 23/117/3 34/208/3 29/115/3
f 35/118/4 32/45/4 76/64/4
f 84/119/6 82/129/6 10/120/6
f 11/122/4 9/13/4 81/123/4
f 39/125/4 55/210/4 53/126/4
f 81/128/1 9/94/1 10/129/1
f 61/21/1 17/160/1 18/26/1
f 60/211/2 66/212/2 65/213/2
f 60/211/2 65/213/2 64/214/2
f 62/215/2 59/216/2 60/211/2
f 57/50/2 58/217/2 61/133/2
f 62/215/2 60/211/2 64/214/2
f 69/132/2 57/50/2 61/133/2
f 61/133/2 62/215/2 64/214/2
f 63/131/2 70/218/2 69/132/2
f 61/133/2 64/214/2 63/131/2
f 84/71/5 12/144/5 11/134/5
f 92/7/5 8/183/5 7/120/5
f 56/76/5 55/77/5 39/42/5
f 59/137/1 15/219/1 16/72/1
f 22/58/4 7/182/4 5/139/4
f 89/51/4 91/52/4 66/59/4
f 89/51/4 66/59/4 60/220/4
f 16/140/4 22/58/4 5/139/4
f 89/51/4 60/220/4 16/140/4
f 88/141/5 87/83/5 43/81/5
f 96/143/2 95/221/2 93/144/2
f 38/141/6 54/53/6 56/126/6
f 66/146/5 22/11/5 21/20/5
