# Blender 5.0.1
# www.blender.org
mtllib Closescroll.mtl
o Closescroll
v -1.600000 0.300000 0.200000
v -1.600000 0.300000 -0.100000
v -1.600000 0.600000 0.200000
v -1.600000 0.600000 -0.100000
v -1.400000 0.000000 0.200000
v -1.400000 -0.000000 -0.100000
v -1.400000 0.100000 0.300000
v -1.400000 0.100000 0.200000
v -1.400000 0.100000 -0.100000
v -1.400000 0.100000 -0.200000
v -1.400000 0.200000 0.400000
v -1.400000 0.200000 0.300000
v -1.400000 0.200000 -0.200000
v -1.400000 0.200000 -0.300000
v -1.400000 0.300000 0.500000
v -1.400000 0.300000 0.400000
v -1.400000 0.300000 0.200000
v -1.400000 0.300000 -0.100000
v -1.400000 0.300000 -0.300000
v -1.400000 0.300000 -0.400000
v -1.400000 0.600000 0.500000
v -1.400000 0.600000 0.400000
v -1.400000 0.600000 0.200000
v -1.400000 0.600000 -0.100000
v -1.400000 0.600000 -0.300000
v -1.400000 0.600000 -0.400000
v -1.400000 0.700000 0.400000
v -1.400000 0.700000 0.300000
v -1.400000 0.700000 -0.200000
v -1.400000 0.700000 -0.300000
v -1.400000 0.800000 0.300000
v -1.400000 0.800000 0.200000
v -1.400000 0.800000 -0.100000
v -1.400000 0.800000 -0.200000
v -1.400000 0.900000 0.200000
v -1.400000 0.900000 -0.100000
v -1.100000 0.000000 0.300000
v -1.100000 0.000000 0.200000
v -1.100000 -0.000000 -0.100000
v -1.100000 -0.000000 -0.200000
v -1.100000 0.100000 0.400000
v -1.100000 0.100000 0.300000
v -1.100000 0.100000 0.200000
v -1.100000 0.100000 -0.100000
v -1.100000 0.100000 -0.200000
v -1.100000 0.100000 -0.300000
v -1.100000 0.200000 0.500000
v -1.100000 0.200000 0.400000
v -1.100000 0.200000 0.300000
v -1.100000 0.200000 -0.200000
v -1.100000 0.200000 -0.300000
v -1.100000 0.200000 -0.400000
v -1.100000 0.300000 0.500000
v -1.100000 0.300000 0.400000
v -1.100000 0.300000 -0.300000
v -1.100000 0.300000 -0.400000
v -1.100000 0.400000 0.100000
v -1.100000 0.400000 -0.000000
v -1.100000 0.500000 0.100000
v -1.100000 0.500000 -0.000000
v -1.100000 0.600000 0.500000
v -1.100000 0.600000 0.400000
v -1.100000 0.600000 -0.300000
v -1.100000 0.600000 -0.400000
v -1.100000 0.700000 0.500000
v -1.100000 0.700000 0.400000
v -1.100000 0.700000 0.300000
v -1.100000 0.700000 -0.200000
v -1.100000 0.700000 -0.300000
v -1.100000 0.700000 -0.400000
v -1.100000 0.800000 0.400000
v -1.100000 0.800000 0.300000
v -1.100000 0.800000 0.200000
v -1.100000 0.800000 -0.100000
v -1.100000 0.800000 -0.200000
v -1.100000 0.800000 -0.300000
v -1.100000 0.900000 0.300000
v -1.100000 0.900000 0.200000
v -1.100000 0.900000 -0.100000
v -1.100000 0.900000 -0.200000
v 1.200000 0.400000 0.100000
v 1.200000 0.400000 -0.000000
v 1.200000 0.500000 0.100000
v 1.200000 0.500000 -0.000000
v -1.200000 0.400000 0.100000
v -1.200000 0.400000 -0.000000
v -1.200000 0.500000 0.100000
v -1.200000 0.500000 -0.000000
v 1.100000 0.000000 0.300000
v 1.100000 0.000000 0.200000
v 1.100000 -0.000000 -0.100000
v 1.100000 -0.000000 -0.200000
v 1.100000 0.100000 0.400000
v 1.100000 0.100000 0.300000
v 1.100000 0.100000 0.200000
v 1.100000 0.100000 -0.100000
v 1.100000 0.100000 -0.200000
v 1.100000 0.100000 -0.300000
v 1.100000 0.200000 0.500000
v 1.100000 0.200000 0.400000
v 1.100000 0.200000 0.300000
v 1.100000 0.200000 -0.200000
v 1.100000 0.200000 -0.300000
v 1.100000 0.200000 -0.400000
v 1.100000 0.300000 0.500000
v 1.100000 0.300000 0.400000
v 1.100000 0.300000 -0.300000
v 1.100000 0.300000 -0.400000
v 1.100000 0.400000 0.100000
v 1.100000 0.400000 -0.000000
v 1.100000 0.500000 0.100000
v 1.100000 0.500000 -0.000000
v 1.100000 0.600000 0.500000
v 1.100000 0.600000 0.400000
v 1.100000 0.600000 -0.300000
v 1.100000 0.600000 -0.400000
v 1.100000 0.700000 0.500000
v 1.100000 0.700000 0.400000
v 1.100000 0.700000 0.300000
v 1.100000 0.700000 -0.200000
v 1.100000 0.700000 -0.300000
v 1.100000 0.700000 -0.400000
v 1.100000 0.800000 0.400000
v 1.100000 0.800000 0.300000
v 1.100000 0.800000 0.200000
v 1.100000 0.800000 -0.100000
v 1.100000 0.800000 -0.200000
v 1.100000 0.800000 -0.300000
v 1.100000 0.900000 0.300000
v 1.100000 0.900000 0.200000
v 1.100000 0.900000 -0.100000
v 1.100000 0.900000 -0.200000
v 1.400000 0.000000 0.200000
v 1.400000 -0.000000 -0.100000
v 1.400000 0.100000 0.300000
v 1.400000 0.100000 0.200000
v 1.400000 0.100000 -0.100000
v 1.400000 0.100000 -0.200000
v 1.400000 0.200000 0.400000
v 1.400000 0.200000 0.300000
v 1.400000 0.200000 -0.200000
v 1.400000 0.200000 -0.300000
v 1.400000 0.300000 0.500000
v 1.400000 0.300000 0.400000
v 1.400000 0.300000 0.200000
v 1.400000 0.300000 -0.100000
v 1.400000 0.300000 -0.300000
v 1.400000 0.300000 -0.400000
v 1.400000 0.600000 0.500000
v 1.400000 0.600000 0.400000
v 1.400000 0.600000 0.200000
v 1.400000 0.600000 -0.100000
v 1.400000 0.600000 -0.300000
v 1.400000 0.600000 -0.400000
v 1.400000 0.700000 0.400000
v 1.400000 0.700000 0.300000
v 1.400000 0.700000 -0.200000
v 1.400000 0.700000 -0.300000
v 1.400000 0.800000 0.300000
v 1.400000 0.800000 0.200000
v 1.400000 0.800000 -0.100000
v 1.400000 0.800000 -0.200000
v 1.400000 0.900000 0.200000
v 1.400000 0.900000 -0.100000
v 1.600000 0.300000 0.200000
v 1.600000 0.300000 -0.100000
v 1.600000 0.600000 0.200000
v 1.600000 0.600000 -0.100000
vn -0.0000 -0.0000 -1.0000
vn -0.0000 1.0000 -0.0000
vn 1.0000 -0.0000 -0.0000
vn -0.0000 -1.0000 -0.0000
vn -0.0000 -0.0000 1.0000
vn -1.0000 -0.0000 -0.0000
vt 0.484375 0.296875
vt 0.437500 0.281250
vt 0.437500 0.296875
vt 0.515625 0.031250
vt 0.468750 0.046875
vt 0.515625 0.046875
vt 0.531250 0.031250
vt 0.515625 0.453125
vt 0.468750 0.437500
vt 0.515625 0.437500
vt 0.437500 0.140625
vt 0.468750 0.093750
vt 0.468750 0.140625
vt 0.343750 0.546875
vt 0.000000 0.531250
vt 0.343750 0.531250
vt 0.046875 0.296875
vt 0.390625 0.296875
vt 0.390625 0.250000
vt 0.484375 0.312500
vt 0.437500 0.312500
vt 0.343750 0.562500
vt 0.000000 0.578125
vt 0.343750 0.578125
vt 0.437500 0.484375
vt 0.390625 0.468750
vt 0.390625 0.484375
vt 0.531250 0.453125
vt 0.531250 0.437500
vt 0.484375 0.484375
vt 0.437500 0.468750
vt 0.484375 0.468750
vt 0.484375 0.515625
vt 0.437500 0.500000
vt 0.484375 0.500000
vt 0.437500 0.453125
vt 0.468750 0.234375
vt 0.437500 0.187500
vt 0.437500 0.234375
vt 0.000000 0.625000
vt 0.343750 0.609375
vt 0.343750 0.625000
vt 0.000000 0.468750
vt 0.343750 0.453125
vt 0.343750 0.468750
vt 0.531250 0.390625
vt 0.484375 0.406250
vt 0.531250 0.406250
vt 0.515625 0.500000
vt 0.500000 0.515625
vt 0.500000 0.500000
vt 0.250000 0.343750
vt 0.281250 0.406250
vt 0.234375 0.359375
vt 0.531250 0.000000
vt 0.515625 0.015625
vt 0.515625 0.000000
vt 0.531250 0.281250
vt 0.531250 0.296875
vt 0.531250 0.312500
vt 0.468750 0.000000
vt 0.437500 0.046875
vt 0.281250 0.375000
vt 0.625000 0.359375
vt 0.625000 0.375000
vt 0.000000 0.484375
vt 0.343750 0.484375
vt 0.484375 0.437500
vt 0.531250 0.421875
vt 0.437500 0.515625
vt 0.453125 0.531250
vt 0.453125 0.515625
vt 0.093750 0.328125
vt 0.046875 0.328125
vt 0.046875 0.359375
vt 0.468750 0.031250
vt 0.468750 0.015625
vt 0.531250 0.250000
vt 0.515625 0.265625
vt 0.515625 0.250000
vt 0.437500 0.093750
vt 0.046875 0.171875
vt 0.390625 0.218750
vt 0.046875 0.218750
vt 0.515625 0.515625
vt 0.500000 0.531250
vt 0.515625 0.531250
vt 0.515625 0.187500
vt 0.468750 0.171875
vt 0.468750 0.187500
vt 0.468750 0.062500
vt 0.515625 0.062500
vt 0.531250 0.468750
vt 0.515625 0.484375
vt 0.515625 0.468750
vt 0.468750 0.156250
vt 0.515625 0.140625
vt 0.515625 0.156250
vt 0.531250 0.140625
vt 0.500000 0.468750
vt 0.406250 0.437500
vt 0.375000 0.390625
vt 0.406250 0.390625
vt 0.281250 0.453125
vt 0.328125 0.437500
vt 0.328125 0.453125
vt 0.500000 0.484375
vt 0.468750 0.515625
vt 0.484375 0.531250
vt 0.531250 0.218750
vt 0.515625 0.234375
vt 0.531250 0.234375
vt 0.515625 0.218750
vt 0.468750 0.203125
vt 0.468750 0.218750
vt 0.468750 0.078125
vt 0.515625 0.078125
vt 0.531250 0.171875
vt 0.531250 0.156250
vt 0.000000 0.515625
vt 0.343750 0.515625
vt 0.390625 0.500000
vt 0.343750 0.593750
vt 0.000000 0.609375
vt 0.531250 0.203125
vt 0.531250 0.187500
vt 0.531250 0.078125
vt 0.515625 0.093750
vt 0.390625 0.453125
vt 0.531250 0.046875
vt 0.000000 0.593750
vt 0.531250 0.015625
vt 0.484375 0.421875
vt 0.625000 0.343750
vt 0.281250 0.328125
vt 0.625000 0.328125
vt 0.484375 0.453125
vt 0.468750 0.281250
vt 0.515625 0.203125
vt 0.468750 0.125000
vt 0.515625 0.109375
vt 0.515625 0.125000
vt 0.531250 0.265625
vt 0.515625 0.281250
vt 0.531250 0.062500
vt 0.328125 0.390625
vt 0.546875 0.015625
vt 0.546875 -0.000000
vt 0.437500 0.531250
vt 0.390625 0.515625
vt 0.390625 0.531250
vt 0.234375 0.437500
vt 0.187500 0.437500
vt 0.187500 0.406250
vt 0.437500 0.437500
vt 0.437500 0.390625
vt 0.046875 0.093750
vt 0.046875 0.140625
vt 0.390625 0.140625
vt 0.625000 0.390625
vt 0.281250 0.390625
vt 0.531250 0.125000
vt 0.531250 0.109375
vt 0.000000 0.546875
vt 0.437500 0.421875
vt 0.468750 0.265625
vt 0.125000 0.359375
vt 0.093750 0.406250
vt 0.125000 0.406250
vt 0.281250 0.312500
vt 0.531250 0.500000
vt 0.437500 0.406250
vt 0.375000 0.437500
vt 0.375000 0.453125
vt 0.531250 0.484375
vt 0.515625 0.171875
vt 0.531250 0.093750
vt 0.546875 0.031250
vt 0.343750 0.500000
vt 0.000000 0.500000
vt 0.531250 0.515625
vt 0.531250 0.531250
vt 0.421875 0.437500
vt 0.421875 0.453125
vt 0.468750 0.109375
vt 0.281250 0.359375
vt 0.468750 0.453125
vt 0.390625 0.015625
vt 0.046875 0.062500
vt 0.046875 0.015625
vt 0.484375 0.281250
vt 0.390625 0.234375
vt 0.046875 0.234375
vt 0.046875 0.250000
vt 0.000000 0.250000
vt 0.000000 0.296875
vt 0.046875 0.312500
vt 0.390625 0.312500
vt 0.437500 0.250000
vt 0.000000 0.562500
vt 0.000000 0.453125
vt 0.484375 0.390625
vt 0.156250 0.359375
vt 0.156250 0.343750
vt 0.171875 0.343750
vt 0.171875 0.328125
vt 0.187500 0.328125
vt 0.187500 0.312500
vt 0.234375 0.312500
vt 0.234375 0.328125
vt 0.250000 0.328125
vt 0.265625 0.343750
vt 0.265625 0.359375
vt 0.140625 0.406250
vt 0.140625 0.359375
vt 0.156250 0.406250
vt 0.171875 0.421875
vt 0.156250 0.421875
vt 0.187500 0.359375
vt 0.250000 0.421875
vt 0.234375 0.406250
vt 0.265625 0.421875
vt 0.265625 0.406250
vt 0.437500 0.000000
vt 0.093750 0.359375
vt 0.125000 0.343750
vt 0.109375 0.343750
vt 0.109375 0.328125
vt 0.093750 0.312500
vt 0.109375 0.421875
vt 0.046875 0.406250
vt 0.109375 0.437500
vt 0.046875 0.453125
vt 0.093750 0.453125
vt 0.093750 0.437500
vt 0.046875 0.437500
vt 0.031250 0.421875
vt 0.031250 0.437500
vt 0.015625 0.406250
vt 0.015625 0.421875
vt 0.000000 0.359375
vt 0.000000 0.406250
vt 0.031250 0.343750
vt 0.015625 0.343750
vt 0.015625 0.359375
vt 0.031250 0.328125
vt 0.046875 0.156250
vt 0.390625 0.156250
vt 0.390625 0.171875
vt 0.437500 0.171875
vt 0.437500 0.218750
vt 0.000000 0.218750
vt 0.000000 0.171875
vt 0.281250 0.437500
vt 0.468750 0.531250
vt 0.281250 0.343750
vt 0.250000 0.437500
vt 0.234375 0.453125
vt 0.187500 0.453125
vt 0.171875 0.437500
vt 0.390625 0.093750
vt 0.390625 0.078125
vt 0.046875 0.078125
vt 0.000000 0.093750
vt 0.000000 0.140625
vt 0.468750 0.250000
vt 0.125000 0.421875
vt 0.625000 0.312500
vt 0.437500 0.015625
vt 0.437500 0.062500
vt 0.390625 0.062500
vt 0.046875 0.000000
vt 0.390625 0.000000
vt 0.000000 0.062500
vt 0.000000 0.015625
s 0
usemtl Closescroll_Material.001
f 50/1/1 10/2/1 13/3/1
f 67/4/2 27/5/2 66/6/2
f 124/7/3 118/6/3 119/4/3
f 135/8/4 95/9/4 136/10/4
f 3/11/5 17/12/5 23/13/5
f 97/14/4 46/15/4 98/16/4
f 78/17/2 130/18/2 131/19/2
f 75/20/1 29/3/1 34/21/1
f 122/22/2 69/23/2 121/24/2
f 69/25/1 25/26/1 30/27/1
f 88/10/2 59/28/2 60/29/2
f 50/30/4 14/31/4 51/32/4
f 143/33/4 106/34/4 144/35/4
f 124/26/5 156/36/5 159/31/5
f 24/37/1 2/38/1 4/39/1
f 42/40/5 89/41/5 94/42/5
f 48/43/5 93/44/5 100/45/5
f 160/46/2 124/47/2 159/48/2
f 101/49/3 93/50/3 94/51/3
f 157/52/3 163/53/3 152/54/3
f 103/55/3 97/56/3 98/57/3
f 62/58/2 21/1/2 61/59/2
f 150/59/2 113/20/2 149/60/2
f 24/61/2 3/62/2 23/5/2
f 77/63/5 124/64/5 129/65/5
f 71/66/5 118/45/5 123/67/5
f 130/68/5 160/69/5 163/29/5
f 112/70/2 83/71/2 84/72/2
f 25/73/6 19/74/6 18/75/6
f 154/56/2 115/76/2 153/4/2
f 64/57/2 25/77/2 63/56/2
f 106/78/3 99/79/3 100/80/3
f 168/5/2 151/81/2 167/12/2
f 69/35/6 75/50/6 76/51/6
f 39/82/4 90/83/4 38/84/4
f 55/34/4 20/27/4 56/25/4
f 58/85/1 88/86/1 60/87/1
f 137/88/1 91/89/1 96/90/1
f 156/6/2 118/91/2 155/92/2
f 82/93/4 109/94/4 110/95/4
f 95/96/5 133/97/5 136/98/5
f 118/99/3 113/98/3 114/97/3
f 64/100/6 69/94/6 70/95/6
f 17/101/4 2/102/4 18/103/4
f 27/104/5 62/105/5 66/106/5
f 46/30/6 50/51/6 51/107/6
f 73/108/6 77/109/6 78/33/6
f 147/35/4 108/25/4 148/30/4
f 88/110/6 85/111/6 87/112/6
f 147/113/1 103/114/1 107/115/1
f 69/92/2 29/116/2 68/117/2
f 38/98/6 42/118/6 43/119/6
f 93/16/4 42/120/4 94/121/4
f 53/70/4 16/122/4 54/34/4
f 128/123/2 75/124/2 127/41/2
f 59/125/3 58/88/3 60/126/3
f 95/112/3 89/80/3 90/111/3
f 108/127/3 103/128/3 104/117/3
f 31/45/5 67/129/5 72/26/5
f 128/130/3 120/92/3 121/6/3
f 124/24/2 71/131/2 123/123/2
f 122/132/3 115/4/3 116/56/3
f 35/133/5 73/48/5 78/69/5
f 99/134/4 48/135/4 100/136/4
f 164/93/1 126/137/1 131/32/1
f 58/108/4 85/71/4 86/72/4
f 130/50/3 124/109/3 125/33/3
f 168/138/1 146/39/1 152/2/1
f 83/110/3 82/139/3 84/125/3
f 106/140/5 139/141/5 144/142/5
f 44/111/4 10/115/4 45/113/4
f 112/143/6 109/144/6 111/58/6
f 52/92/6 55/127/6 56/145/6
f 158/117/2 120/12/2 157/128/2
f 168/102/3 165/105/3 166/146/3
f 59/147/5 85/55/5 57/148/5
f 79/149/1 33/150/1 36/151/1
f 150/152/3 144/153/3 145/154/3
f 165/155/4 146/103/4 166/156/4
f 56/157/1 64/158/1 116/159/1
f 162/79/2 126/138/2 161/144/2
f 132/160/1 75/63/1 80/161/1
f 62/141/6 65/162/6 66/163/6
f 103/22/4 52/164/4 104/14/4
f 48/68/4 12/165/4 49/133/4
f 75/80/2 33/166/2 74/79/2
f 55/139/1 14/90/1 19/114/1
f 33/167/6 23/168/6 32/169/6
f 97/136/1 40/170/1 45/135/1
f 132/171/3 126/85/3 127/49/3
f 158/133/1 115/172/1 121/165/1
f 118/106/5 150/173/5 155/174/5
f 75/94/6 79/171/6 80/175/6
f 44/176/1 6/96/1 9/89/1
f 40/128/6 44/163/6 45/177/6
f 83/178/5 109/132/5 81/147/5
f 103/179/1 46/66/1 51/180/1
f 8/13/5 38/142/5 43/97/5
f 82/181/1 112/87/1 84/182/1
f 42/32/6 48/107/6 49/100/6
f 162/47/1 120/156/1 127/172/1
f 2/161/6 3/105/6 4/146/6
f 12/174/5 42/183/5 49/184/5
f 151/38/5 165/13/5 167/90/5
f 67/107/6 71/49/6 72/94/6
f 16/185/5 48/128/5 54/141/5
f 139/32/4 101/36/4 140/137/4
f 97/162/3 91/97/3 92/142/3
f 128/121/1 69/180/1 76/120/1
f 137/80/4 97/37/4 138/111/4
f 118/134/2 65/186/2 117/64/2
f 141/122/4 103/67/4 142/27/4
f 42/150/4 8/179/4 43/122/4
f 101/184/5 135/9/5 140/187/5
f 105/188/5 61/189/5 53/190/5
f 141/27/1 97/45/1 102/67/1
f 73/150/2 31/16/2 72/151/2
f 48/176/6 53/126/6 54/118/6
f 50/1/1 45/191/1 10/2/1
f 67/4/2 28/76/2 27/5/2
f 124/7/3 123/130/3 118/6/3
f 135/8/4 94/187/4 95/9/4
f 3/11/5 1/81/5 17/12/5
f 97/14/4 45/164/4 46/15/4
f 132/192/2 80/193/2 79/194/2
f 79/194/2 36/195/2 35/196/2
f 78/17/2 77/197/2 129/198/2
f 79/194/2 35/196/2 78/17/2
f 131/19/2 132/192/2 79/194/2
f 163/3/2 164/199/2 131/19/2
f 78/17/2 129/198/2 130/18/2
f 130/18/2 163/3/2 131/19/2
f 131/19/2 79/194/2 78/17/2
f 75/20/1 68/1/1 29/3/1
f 122/22/2 70/200/2 69/23/2
f 69/25/1 63/31/1 25/26/1
f 88/10/2 87/8/2 59/28/2
f 50/30/4 13/25/4 14/31/4
f 143/33/4 105/70/4 106/34/4
f 124/26/5 119/129/5 156/36/5
f 24/37/1 18/90/1 2/38/1
f 42/40/5 37/124/5 89/41/5
f 48/43/5 41/201/5 93/44/5
f 160/46/2 125/202/2 124/47/2
f 101/49/3 100/85/3 93/50/3
f 137/203/3 138/204/3 141/205/3
f 141/205/3 142/206/3 147/207/3
f 147/207/3 148/208/3 154/209/3
f 153/210/3 158/211/3 157/52/3
f 147/207/3 154/209/3 153/210/3
f 141/205/3 147/207/3 153/210/3
f 157/52/3 162/212/3 161/213/3
f 141/205/3 153/210/3 157/52/3
f 133/214/3 134/215/3 137/203/3
f 137/203/3 141/205/3 157/52/3
f 161/213/3 164/186/3 163/53/3
f 136/216/3 133/214/3 137/203/3
f 140/217/3 135/218/3 136/216/3
f 146/219/3 145/154/3 140/217/3
f 156/220/3 151/221/3 152/54/3
f 146/219/3 140/217/3 136/216/3
f 159/222/3 156/220/3 152/54/3
f 146/219/3 136/216/3 137/203/3
f 160/223/3 159/222/3 152/54/3
f 146/219/3 137/203/3 157/52/3
f 163/53/3 160/223/3 152/54/3
f 152/54/3 146/219/3 157/52/3
f 157/52/3 161/213/3 163/53/3
f 103/55/3 102/132/3 97/56/3
f 62/58/2 22/191/2 21/1/2
f 150/59/2 114/1/2 113/20/2
f 24/61/2 4/224/2 3/62/2
f 77/63/5 72/186/5 124/64/5
f 71/66/5 66/43/5 118/45/5
f 130/68/5 125/133/5 160/69/5
f 112/70/2 111/149/2 83/71/2
f 24/225/6 33/167/6 34/226/6
f 29/227/6 30/228/6 25/73/6
f 24/225/6 34/226/6 29/227/6
f 18/75/6 24/225/6 29/227/6
f 25/73/6 26/229/6 20/197/6
f 18/75/6 29/227/6 25/73/6
f 28/230/6 23/168/6 17/231/6
f 27/232/6 28/230/6 17/231/6
f 15/233/6 21/234/6 22/235/6
f 22/235/6 27/232/6 17/231/6
f 16/236/6 15/233/6 22/235/6
f 12/237/6 11/238/6 16/236/6
f 8/239/6 7/240/6 12/237/6
f 6/241/6 5/242/6 8/239/6
f 13/243/6 10/244/6 9/245/6
f 9/245/6 6/241/6 8/239/6
f 12/237/6 16/236/6 22/235/6
f 9/245/6 8/239/6 12/237/6
f 19/74/6 14/246/6 13/243/6
f 13/243/6 9/245/6 12/237/6
f 12/237/6 22/235/6 17/231/6
f 12/237/6 17/231/6 18/75/6
f 19/74/6 13/243/6 12/237/6
f 25/73/6 20/197/6 19/74/6
f 19/74/6 12/237/6 18/75/6
f 154/56/2 116/77/2 115/76/2
f 64/57/2 26/61/2 25/77/2
f 106/78/3 105/143/3 99/79/3
f 168/5/2 152/62/2 151/81/2
f 69/35/6 68/33/6 75/50/6
f 39/82/4 40/247/4 92/248/4
f 91/249/4 134/250/4 133/251/4
f 39/82/4 92/248/4 91/249/4
f 5/252/4 6/253/4 39/82/4
f 89/192/4 37/193/4 38/84/4
f 38/84/4 5/252/4 39/82/4
f 39/82/4 91/249/4 133/251/4
f 90/83/4 89/192/4 38/84/4
f 39/82/4 133/251/4 90/83/4
f 55/34/4 19/122/4 20/27/4
f 58/85/1 86/50/1 88/86/1
f 137/88/1 134/176/1 91/89/1
f 156/6/2 119/5/2 118/91/2
f 82/93/4 81/175/4 109/94/4
f 95/96/5 90/13/5 133/97/5
f 118/99/3 117/119/3 113/98/3
f 64/100/6 63/107/6 69/94/6
f 17/101/4 1/173/4 2/102/4
f 27/104/5 22/254/5 62/105/5
f 46/30/6 45/35/6 50/51/6
f 73/108/6 72/255/6 77/109/6
f 147/35/4 107/34/4 108/25/4
f 88/110/6 86/113/6 85/111/6
f 147/113/1 142/139/1 103/114/1
f 69/92/2 30/91/2 29/116/2
f 38/98/6 37/176/6 42/118/6
f 93/16/4 41/15/4 42/120/4
f 53/70/4 15/150/4 16/122/4
f 128/123/2 76/131/2 75/124/2
f 59/125/3 57/139/3 58/88/3
f 95/112/3 94/78/3 89/80/3
f 108/127/3 107/177/3 103/128/3
f 31/45/5 28/44/5 67/129/5
f 128/130/3 127/145/3 120/92/3
f 124/24/2 72/23/2 71/131/2
f 122/132/3 121/7/3 115/4/3
f 35/133/5 32/47/5 73/48/5
f 99/134/4 47/256/4 48/135/4
f 164/93/1 161/28/1 126/137/1
f 58/108/4 57/255/4 85/71/4
f 130/50/3 129/86/3 124/109/3
f 168/138/1 166/37/1 146/39/1
f 83/110/3 81/113/3 82/139/3
f 106/140/5 100/185/5 139/141/5
f 44/111/4 9/37/4 10/115/4
f 112/143/6 110/79/6 109/144/6
f 52/92/6 51/117/6 55/127/6
f 158/117/2 121/116/2 120/12/2
f 168/102/3 167/173/3 165/105/3
f 59/147/5 87/132/5 85/55/5
f 79/149/1 74/70/1 33/150/1
f 145/154/3 151/221/3 156/220/3
f 156/220/3 155/257/3 150/152/3
f 150/152/3 149/258/3 143/259/3
f 144/153/3 139/260/3 140/217/3
f 150/152/3 143/259/3 144/153/3
f 145/154/3 156/220/3 150/152/3
f 144/153/3 140/217/3 145/154/3
f 165/155/4 145/101/4 146/103/4
f 154/11/1 148/81/1 108/261/1
f 108/261/1 104/262/1 52/263/1
f 56/157/1 20/264/1 26/265/1
f 108/261/1 52/263/1 56/157/1
f 116/159/1 154/11/1 108/261/1
f 70/247/1 122/248/1 116/159/1
f 56/157/1 26/265/1 64/158/1
f 64/158/1 70/247/1 116/159/1
f 116/159/1 108/261/1 56/157/1
f 162/79/2 127/166/2 126/138/2
f 132/160/1 127/65/1 75/63/1
f 62/141/6 61/142/6 65/162/6
f 103/22/4 51/200/4 52/164/4
f 48/68/4 11/155/4 12/165/4
f 75/80/2 34/266/2 33/166/2
f 55/139/1 51/88/1 14/90/1
f 35/214/6 36/215/6 33/167/6
f 33/167/6 24/225/6 23/168/6
f 23/168/6 28/230/6 31/267/6
f 32/169/6 35/214/6 33/167/6
f 23/168/6 31/267/6 32/169/6
f 97/136/1 92/268/1 40/170/1
f 132/171/3 131/181/3 126/85/3
f 158/133/1 153/47/1 115/172/1
f 118/106/5 114/105/5 150/173/5
f 75/94/6 74/49/6 79/171/6
f 44/176/1 39/98/1 6/96/1
f 40/128/6 39/141/6 44/163/6
f 83/178/5 111/7/5 109/132/5
f 103/179/1 98/67/1 46/66/1
f 8/13/5 5/140/5 38/142/5
f 82/181/1 110/85/1 112/87/1
f 42/32/6 41/30/6 48/107/6
f 162/47/1 157/202/1 120/156/1
f 2/161/6 1/254/6 3/105/6
f 12/174/5 7/173/5 42/183/5
f 151/38/5 145/11/5 165/13/5
f 67/107/6 66/51/6 71/49/6
f 16/185/5 11/12/5 48/128/5
f 139/32/4 100/31/4 101/36/4
f 97/162/3 96/99/3 91/97/3
f 128/121/1 121/179/1 69/180/1
f 137/80/4 96/266/4 97/37/4
f 118/134/2 66/256/2 65/186/2
f 141/122/4 102/179/4 103/67/4
f 42/150/4 7/121/4 8/179/4
f 101/184/5 94/183/5 135/9/5
f 105/188/5 143/269/5 149/270/5
f 113/271/5 117/262/5 65/263/5
f 105/188/5 149/270/5 113/271/5
f 47/272/5 99/273/5 105/188/5
f 21/274/5 15/275/5 53/190/5
f 53/190/5 47/272/5 105/188/5
f 105/188/5 113/271/5 65/263/5
f 61/189/5 21/274/5 53/190/5
f 105/188/5 65/263/5 61/189/5
f 141/27/1 138/26/1 97/45/1
f 73/150/2 32/121/2 31/16/2
f 48/176/6 47/88/6 53/126/6
