# MagicaVoxel @ Ephtracy

# group
o 

# material
mtllib medieval_library_stackofbooks.mtl
usemtl palette

# normals
vn -1 0 0
vn 1 0 0
vn 0 0 1
vn 0 0 -1
vn 0 -1 0
vn 0 1 0

# texcoords
vt 0.306641 0.5
vt 0.310547 0.5
vt 0.330078 0.5
vt 0.341797 0.5
vt 0.365234 0.5
vt 0.369141 0.5
vt 0.958984 0.5
vt 0.990234 0.5

# verts
v -1.4 1 1.2
v -1.4 1 0.1
v -1.4 1.1 1.2
v -1.4 1.1 0.1
v -1.3 0 1.1
v -1.3 0 1
v -1.3 0 0.3
v -1.3 0 0.2
v -1.3 1 1.1
v -1.3 1 1
v -1.3 1 0.3
v -1.3 1 0.2
v -1.3 1.1 0.9
v -1.3 1.1 0.2
v -1.3 1.2 0.9
v -1.3 1.2 0.2
v -1.3 1.3 0.9
v -1.3 1.3 0.2
v -1.3 1.4 0.9
v -1.3 1.4 0.2
v -1.3 1.7 1
v -1.3 1.7 0.3
v -1.3 1.8 1
v -1.3 1.8 0.3
v -1.3 1.9 1
v -1.3 1.9 0.3
v -1.3 2 1
v -1.3 2 0.3
v -1.1 1.4 1.1
v -1.1 1.4 0.9
v -1.1 1.4 0.4
v -1.1 1.5 1.1
v -1.1 1.5 0.4
v -1.1 1.6 1.1
v -1.1 1.6 0.4
v -1.1 1.7 1.1
v -1.1 1.7 1
v -1.1 1.7 0.4
v -1 2 1.1
v -1 2 1
v -1 2 0.4
v -1 2.1 1.1
v -1 2.1 0.4
v -1 2.2 1.1
v -1 2.2 0.4
v -1 2.3 1.1
v -1 2.3 0.4
v -0.9 2.1 1
v -0.9 2.1 0.5
v -0.9 2.2 1
v -0.9 2.2 0.5
v -0.7 1.1 1
v -0.7 1.1 0.3
v -0.7 1.2 1
v -0.7 1.2 0.3
v -0.7 1.3 1
v -0.7 1.3 0.3
v -0.7 1.4 1
v -0.7 1.4 0.4
v -0.7 1.4 0.3
v -0.6 1.7 1.1
v -0.6 1.7 0.4
v -0.6 1.8 1.1
v -0.6 1.8 0.4
v -0.6 1.9 1.1
v -0.6 1.9 0.4
v -0.6 2 1.1
v -0.6 2 0.4
v -0.6 2.1 1.1
v -0.6 2.1 1
v -0.6 2.1 0.5
v -0.6 2.1 0.4
v -0.6 2.2 1.1
v -0.6 2.2 1
v -0.6 2.2 0.5
v -0.6 2.2 0.4
v -0.5 0 1.1
v -0.5 0 1
v -0.5 0 0.3
v -0.5 0 0.2
v -0.5 1 1.1
v -0.5 1 1
v -0.5 1 0.3
v -0.5 1 0.2
v -0.5 1.4 0.7
v -0.5 1.4 0.3
v -0.5 1.4 0
v -0.5 1.5 0.7
v -0.5 1.5 0
v -0.5 1.6 0.7
v -0.5 1.6 0
v -0.5 1.7 0.7
v -0.5 1.7 0.4
v -0.5 1.7 0
v -0.5 1.8 1
v -0.5 1.8 0.5
v -0.5 1.9 1
v -0.5 1.9 0.5
v -0.4 1.5 0.6
v -0.4 1.5 0.1
v -0.4 1.6 0.6
v -0.4 1.6 0.1
v -0.2 1.8 1.1
v -0.2 1.8 1
v -0.2 1.8 0.5
v -0.2 1.8 0.4
v -0.2 1.9 1.1
v -0.2 1.9 1
v -0.2 1.9 0.5
v -0.2 1.9 0.4
v -0.1 1.5 0.7
v -0.1 1.5 0.6
v -0.1 1.5 0.1
v -0.1 1.5 0
v -0.1 1.6 0.7
v -0.1 1.6 0.6
v -0.1 1.6 0.1
v -0.1 1.6 0
v -1.2 0 1.1
v -1.2 0 1
v -1.2 0 0.3
v -1.2 0 0.2
v -1.2 1 1.1
v -1.2 1 1
v -1.2 1 0.3
v -1.2 1 0.2
v -1.2 1.2 0.9
v -1.2 1.2 0.8
v -1.2 1.2 0.3
v -1.2 1.2 0.2
v -1.2 1.3 0.9
v -1.2 1.3 0.8
v -1.2 1.3 0.3
v -1.2 1.3 0.2
v -1.2 1.8 1
v -1.2 1.8 0.9
v -1.2 1.8 0.4
v -1.2 1.8 0.3
v -1.2 1.9 1
v -1.2 1.9 0.9
v -1.2 1.9 0.4
v -1.2 1.9 0.3
v -1 1.5 1.1
v -1 1.5 1
v -1 1.5 0.5
v -1 1.5 0.4
v -1 1.6 1.1
v -1 1.6 1
v -1 1.6 0.5
v -1 1.6 0.4
v -0.9 1.2 0.8
v -0.9 1.2 0.3
v -0.9 1.3 0.8
v -0.9 1.3 0.3
v -0.9 1.8 0.9
v -0.9 1.8 0.4
v -0.9 1.9 0.9
v -0.9 1.9 0.4
v -0.8 1.1 0.9
v -0.8 1.1 0.2
v -0.8 1.2 0.9
v -0.8 1.2 0.2
v -0.8 1.3 0.9
v -0.8 1.3 0.2
v -0.8 1.4 0.9
v -0.8 1.4 0.4
v -0.8 1.4 0.2
v -0.8 1.7 1
v -0.8 1.7 0.4
v -0.8 1.7 0.3
v -0.8 1.8 1
v -0.8 1.8 0.3
v -0.8 1.9 1
v -0.8 1.9 0.3
v -0.8 2 1
v -0.8 2 0.4
v -0.8 2 0.3
v -0.7 1.5 1
v -0.7 1.5 0.5
v -0.7 1.6 1
v -0.7 1.6 0.5
v -0.6 1.2 1
v -0.6 1.2 0.9
v -0.6 1.2 0.4
v -0.6 1.2 0.3
v -0.6 1.3 1
v -0.6 1.3 0.9
v -0.6 1.3 0.4
v -0.6 1.3 0.3
v -0.6 1.4 1.1
v -0.6 1.4 1
v -0.6 1.4 0.4
v -0.6 1.5 1.1
v -0.6 1.5 0.4
v -0.6 1.6 1.1
v -0.6 1.6 0.4
v -0.6 1.7 1.1
v -0.6 1.7 0.4
v -0.5 2 1.1
v -0.5 2 0.4
v -0.5 2.1 1.1
v -0.5 2.1 0.4
v -0.5 2.2 1.1
v -0.5 2.2 0.4
v -0.5 2.3 1.1
v -0.5 2.3 0.4
v -0.4 0 1.1
v -0.4 0 1
v -0.4 0 0.3
v -0.4 0 0.2
v -0.4 1 1.1
v -0.4 1 1
v -0.4 1 0.3
v -0.4 1 0.2
v -0.3 1 1.2
v -0.3 1 0.1
v -0.3 1.1 1.2
v -0.3 1.1 1
v -0.3 1.1 0.3
v -0.3 1.1 0.1
v -0.3 1.2 0.9
v -0.3 1.2 0.4
v -0.3 1.3 0.9
v -0.3 1.3 0.4
v -0.2 1.1 1
v -0.2 1.1 0.3
v -0.2 1.2 1
v -0.2 1.2 0.3
v -0.2 1.3 1
v -0.2 1.3 0.3
v -0.2 1.4 1
v -0.2 1.4 0.7
v -0.2 1.4 0.3
v -0.1 1.7 1.1
v -0.1 1.7 0.7
v -0.1 1.7 0.4
v -0.1 1.8 1.1
v -0.1 1.8 0.4
v -0.1 1.9 1.1
v -0.1 1.9 0.4
v -0.1 2 1.1
v -0.1 2 0.4
v 0 1.4 0.7
v 0 1.4 0
v 0 1.5 0.7
v 0 1.5 0
v 0 1.6 0.7
v 0 1.6 0
v 0 1.7 0.7
v 0 1.7 0
v -1.4 1 1.2
v -1.4 1.1 1.2
v -0.3 1 1.2
v -0.3 1.1 1.2
v -1.3 0 1.1
v -1.3 1 1.1
v -1.2 0 1.1
v -1.2 1 1.1
v -1.1 1.4 1.1
v -1.1 1.5 1.1
v -1.1 1.6 1.1
v -1.1 1.7 1.1
v -1 1.5 1.1
v -1 1.6 1.1
v -1 2 1.1
v -1 2.1 1.1
v -1 2.2 1.1
v -1 2.3 1.1
v -0.6 1.4 1.1
v -0.6 1.5 1.1
v -0.6 1.6 1.1
v -0.6 1.7 1.1
v -0.6 1.8 1.1
v -0.6 1.9 1.1
v -0.6 2 1.1
v -0.6 2.1 1.1
v -0.6 2.2 1.1
v -0.5 0 1.1
v -0.5 1 1.1
v -0.5 2 1.1
v -0.5 2.1 1.1
v -0.5 2.2 1.1
v -0.5 2.3 1.1
v -0.4 0 1.1
v -0.4 1 1.1
v -0.2 1.8 1.1
v -0.2 1.9 1.1
v -0.1 1.7 1.1
v -0.1 1.8 1.1
v -0.1 1.9 1.1
v -0.1 2 1.1
v -1.3 1.7 1
v -1.3 1.8 1
v -1.3 1.9 1
v -1.3 2 1
v -1.2 1.8 1
v -1.2 1.9 1
v -1.1 1.7 1
v -1 1.5 1
v -1 1.6 1
v -1 2 1
v -0.9 2.1 1
v -0.9 2.2 1
v -0.8 1.7 1
v -0.8 1.8 1
v -0.8 1.9 1
v -0.8 2 1
v -0.7 1.1 1
v -0.7 1.2 1
v -0.7 1.3 1
v -0.7 1.4 1
v -0.7 1.5 1
v -0.7 1.6 1
v -0.6 1.2 1
v -0.6 1.3 1
v -0.6 1.4 1
v -0.6 2.1 1
v -0.6 2.2 1
v -0.5 1.8 1
v -0.5 1.9 1
v -0.3 1.1 1
v -0.2 1.1 1
v -0.2 1.2 1
v -0.2 1.3 1
v -0.2 1.4 1
v -0.2 1.8 1
v -0.2 1.9 1
v -1.3 1.1 0.9
v -1.3 1.2 0.9
v -1.3 1.3 0.9
v -1.3 1.4 0.9
v -1.2 1.2 0.9
v -1.2 1.3 0.9
v -1.2 1.8 0.9
v -1.2 1.9 0.9
v -1.1 1.4 0.9
v -0.9 1.8 0.9
v -0.9 1.9 0.9
v -0.8 1.1 0.9
v -0.8 1.2 0.9
v -0.8 1.3 0.9
v -0.8 1.4 0.9
v -0.6 1.2 0.9
v -0.6 1.3 0.9
v -0.3 1.2 0.9
v -0.3 1.3 0.9
v -1.2 1.2 0.8
v -1.2 1.3 0.8
v -0.9 1.2 0.8
v -0.9 1.3 0.8
v -0.5 1.4 0.7
v -0.5 1.5 0.7
v -0.5 1.6 0.7
v -0.5 1.7 0.7
v -0.2 1.4 0.7
v -0.1 1.5 0.7
v -0.1 1.6 0.7
v -0.1 1.7 0.7
v 0 1.4 0.7
v 0 1.5 0.7
v 0 1.6 0.7
v 0 1.7 0.7
v -0.4 1.5 0.6
v -0.4 1.6 0.6
v -0.1 1.5 0.6
v -0.1 1.6 0.6
v -1.3 0 0.3
v -1.3 1 0.3
v -1.2 0 0.3
v -1.2 1 0.3
v -0.5 0 0.3
v -0.5 1 0.3
v -0.4 0 0.3
v -0.4 1 0.3
v -1.3 0 1
v -1.3 1 1
v -1.2 0 1
v -1.2 1 1
v -0.5 0 1
v -0.5 1 1
v -0.4 0 1
v -0.4 1 1
v -1 1.5 0.5
v -1 1.6 0.5
v -0.9 2.1 0.5
v -0.9 2.2 0.5
v -0.7 1.5 0.5
v -0.7 1.6 0.5
v -0.6 2.1 0.5
v -0.6 2.2 0.5
v -0.5 1.8 0.5
v -0.5 1.9 0.5
v -0.2 1.8 0.5
v -0.2 1.9 0.5
v -1.2 1.8 0.4
v -1.2 1.9 0.4
v -1.1 1.4 0.4
v -1.1 1.5 0.4
v -1.1 1.6 0.4
v -1.1 1.7 0.4
v -1 1.5 0.4
v -1 1.6 0.4
v -1 2 0.4
v -1 2.1 0.4
v -1 2.2 0.4
v -1 2.3 0.4
v -0.9 1.8 0.4
v -0.9 1.9 0.4
v -0.8 1.4 0.4
v -0.8 1.7 0.4
v -0.8 2 0.4
v -0.7 1.4 0.4
v -0.6 1.2 0.4
v -0.6 1.3 0.4
v -0.6 1.4 0.4
v -0.6 1.5 0.4
v -0.6 1.6 0.4
v -0.6 1.7 0.4
v -0.6 1.8 0.4
v -0.6 1.9 0.4
v -0.6 2 0.4
v -0.6 2.1 0.4
v -0.6 2.2 0.4
v -0.5 1.7 0.4
v -0.5 2 0.4
v -0.5 2.1 0.4
v -0.5 2.2 0.4
v -0.5 2.3 0.4
v -0.3 1.2 0.4
v -0.3 1.3 0.4
v -0.2 1.8 0.4
v -0.2 1.9 0.4
v -0.1 1.7 0.4
v -0.1 1.8 0.4
v -0.1 1.9 0.4
v -0.1 2 0.4
v -1.3 1.7 0.3
v -1.3 1.8 0.3
v -1.3 1.9 0.3
v -1.3 2 0.3
v -1.2 1.2 0.3
v -1.2 1.3 0.3
v -1.2 1.8 0.3
v -1.2 1.9 0.3
v -0.9 1.2 0.3
v -0.9 1.3 0.3
v -0.8 1.7 0.3
v -0.8 1.8 0.3
v -0.8 1.9 0.3
v -0.8 2 0.3
v -0.7 1.1 0.3
v -0.7 1.2 0.3
v -0.7 1.3 0.3
v -0.7 1.4 0.3
v -0.6 1.2 0.3
v -0.6 1.3 0.3
v -0.5 1.4 0.3
v -0.3 1.1 0.3
v -0.2 1.1 0.3
v -0.2 1.2 0.3
v -0.2 1.3 0.3
v -0.2 1.4 0.3
v -1.3 0 0.2
v -1.3 1 0.2
v -1.3 1.1 0.2
v -1.3 1.2 0.2
v -1.3 1.3 0.2
v -1.3 1.4 0.2
v -1.2 0 0.2
v -1.2 1 0.2
v -1.2 1.2 0.2
v -1.2 1.3 0.2
v -0.8 1.1 0.2
v -0.8 1.2 0.2
v -0.8 1.3 0.2
v -0.8 1.4 0.2
v -0.5 0 0.2
v -0.5 1 0.2
v -0.4 0 0.2
v -0.4 1 0.2
v -1.4 1 0.1
v -1.4 1.1 0.1
v -0.4 1.5 0.1
v -0.4 1.6 0.1
v -0.3 1 0.1
v -0.3 1.1 0.1
v -0.1 1.5 0.1
v -0.1 1.6 0.1
v -0.5 1.4 0
v -0.5 1.5 0
v -0.5 1.6 0
v -0.5 1.7 0
v -0.1 1.5 0
v -0.1 1.6 0
v 0 1.4 0
v 0 1.5 0
v 0 1.6 0
v 0 1.7 0
v -1.3 0 1.1
v -1.2 0 1.1
v -0.5 0 1.1
v -0.4 0 1.1
v -1.3 0 1
v -1.2 0 1
v -0.5 0 1
v -0.4 0 1
v -1.3 0 0.3
v -1.2 0 0.3
v -0.5 0 0.3
v -0.4 0 0.3
v -1.3 0 0.2
v -1.2 0 0.2
v -0.5 0 0.2
v -0.4 0 0.2
v -1.4 1 1.2
v -0.3 1 1.2
v -1.3 1 1.1
v -1.2 1 1.1
v -0.5 1 1.1
v -0.4 1 1.1
v -1.3 1 1
v -1.2 1 1
v -0.5 1 1
v -0.4 1 1
v -1.3 1 0.3
v -1.2 1 0.3
v -0.5 1 0.3
v -0.4 1 0.3
v -1.3 1 0.2
v -1.2 1 0.2
v -0.5 1 0.2
v -0.4 1 0.2
v -1.4 1 0.1
v -0.3 1 0.1
v -0.3 1.1 1
v -0.2 1.1 1
v -0.3 1.1 0.3
v -0.2 1.1 0.3
v -0.6 1.3 1
v -0.2 1.3 1
v -1.2 1.3 0.9
v -0.8 1.3 0.9
v -0.6 1.3 0.9
v -0.3 1.3 0.9
v -1.2 1.3 0.8
v -0.9 1.3 0.8
v -0.6 1.3 0.4
v -0.3 1.3 0.4
v -1.2 1.3 0.3
v -0.9 1.3 0.3
v -0.6 1.3 0.3
v -0.2 1.3 0.3
v -1.2 1.3 0.2
v -0.8 1.3 0.2
v -1.1 1.4 1.1
v -0.6 1.4 1.1
v -0.7 1.4 1
v -0.6 1.4 1
v -1.1 1.4 0.9
v -0.8 1.4 0.9
v -0.2 1.4 0.7
v 0 1.4 0.7
v -0.8 1.4 0.4
v -0.7 1.4 0.4
v -0.5 1.4 0.3
v -0.2 1.4 0.3
v -0.5 1.4 0
v 0 1.4 0
v -1 1.6 1.1
v -0.6 1.6 1.1
v -1 1.6 1
v -0.7 1.6 1
v -0.5 1.6 0.7
v -0.1 1.6 0.7
v -0.4 1.6 0.6
v -0.1 1.6 0.6
v -1 1.6 0.5
v -0.7 1.6 0.5
v -1 1.6 0.4
v -0.6 1.6 0.4
v -0.4 1.6 0.1
v -0.1 1.6 0.1
v -0.5 1.6 0
v -0.1 1.6 0
v -0.6 1.7 1.1
v -0.1 1.7 1.1
v -1.3 1.7 1
v -1.1 1.7 1
v -0.5 1.7 0.7
v -0.1 1.7 0.7
v -1.1 1.7 0.4
v -0.8 1.7 0.4
v -0.6 1.7 0.4
v -0.5 1.7 0.4
v -1.3 1.7 0.3
v -0.8 1.7 0.3
v -0.6 1.9 1.1
v -0.2 1.9 1.1
v -1.2 1.9 1
v -0.8 1.9 1
v -0.5 1.9 1
v -0.2 1.9 1
v -1.2 1.9 0.9
v -0.9 1.9 0.9
v -0.5 1.9 0.5
v -0.2 1.9 0.5
v -1.2 1.9 0.4
v -0.9 1.9 0.4
v -0.6 1.9 0.4
v -0.2 1.9 0.4
v -1.2 1.9 0.3
v -0.8 1.9 0.3
v -1 2 1.1
v -0.6 2 1.1
v -1 2 1
v -0.8 2 1
v -0.8 2 0.4
v -0.6 2 0.4
v -1 2.2 1.1
v -0.6 2.2 1.1
v -0.9 2.2 1
v -0.6 2.2 1
v -0.9 2.2 0.5
v -0.6 2.2 0.5
v -1 2.2 0.4
v -0.6 2.2 0.4
v -1.4 1.1 1.2
v -0.3 1.1 1.2
v -0.7 1.1 1
v -0.3 1.1 1
v -1.3 1.1 0.9
v -0.8 1.1 0.9
v -0.7 1.1 0.3
v -0.3 1.1 0.3
v -1.3 1.1 0.2
v -0.8 1.1 0.2
v -1.4 1.1 0.1
v -0.3 1.1 0.1
v -0.6 1.2 1
v -0.2 1.2 1
v -1.2 1.2 0.9
v -0.8 1.2 0.9
v -0.6 1.2 0.9
v -0.3 1.2 0.9
v -1.2 1.2 0.8
v -0.9 1.2 0.8
v -0.6 1.2 0.4
v -0.3 1.2 0.4
v -1.2 1.2 0.3
v -0.9 1.2 0.3
v -0.6 1.2 0.3
v -0.2 1.2 0.3
v -1.2 1.2 0.2
v -0.8 1.2 0.2
v -0.6 1.4 1
v -0.2 1.4 1
v -1.3 1.4 0.9
v -1.1 1.4 0.9
v -0.5 1.4 0.7
v -0.2 1.4 0.7
v -1.1 1.4 0.4
v -0.8 1.4 0.4
v -0.7 1.4 0.4
v -0.6 1.4 0.4
v -0.7 1.4 0.3
v -0.5 1.4 0.3
v -1.3 1.4 0.2
v -0.8 1.4 0.2
v -1 1.5 1.1
v -0.6 1.5 1.1
v -1 1.5 1
v -0.7 1.5 1
v -0.5 1.5 0.7
v -0.1 1.5 0.7
v -0.4 1.5 0.6
v -0.1 1.5 0.6
v -1 1.5 0.5
v -0.7 1.5 0.5
v -1 1.5 0.4
v -0.6 1.5 0.4
v -0.4 1.5 0.1
v -0.1 1.5 0.1
v -0.5 1.5 0
v -0.1 1.5 0
v -1.1 1.7 1.1
v -0.6 1.7 1.1
v -1.1 1.7 1
v -0.8 1.7 1
v -0.1 1.7 0.7
v 0 1.7 0.7
v -0.8 1.7 0.4
v -0.6 1.7 0.4
v -0.5 1.7 0.4
v -0.1 1.7 0.4
v -0.5 1.7 0
v 0 1.7 0
v -0.6 1.8 1.1
v -0.2 1.8 1.1
v -1.2 1.8 1
v -0.8 1.8 1
v -0.5 1.8 1
v -0.2 1.8 1
v -1.2 1.8 0.9
v -0.9 1.8 0.9
v -0.5 1.8 0.5
v -0.2 1.8 0.5
v -1.2 1.8 0.4
v -0.9 1.8 0.4
v -0.6 1.8 0.4
v -0.2 1.8 0.4
v -1.2 1.8 0.3
v -0.8 1.8 0.3
v -0.5 2 1.1
v -0.1 2 1.1
v -1.3 2 1
v -1 2 1
v -1 2 0.4
v -0.8 2 0.4
v -0.5 2 0.4
v -0.1 2 0.4
v -1.3 2 0.3
v -0.8 2 0.3
v -1 2.1 1.1
v -0.6 2.1 1.1
v -0.9 2.1 1
v -0.6 2.1 1
v -0.9 2.1 0.5
v -0.6 2.1 0.5
v -1 2.1 0.4
v -0.6 2.1 0.4
v -1 2.3 1.1
v -0.5 2.3 1.1
v -1 2.3 0.4
v -0.5 2.3 0.4

# faces
f 3/2/1 2/2/1 1/2/1
f 4/2/1 2/2/1 3/2/1
f 9/2/1 6/2/1 5/2/1
f 10/2/1 6/2/1 9/2/1
f 11/2/1 8/2/1 7/2/1
f 12/2/1 8/2/1 11/2/1
f 15/4/1 14/4/1 13/4/1
f 16/4/1 14/4/1 15/4/1
f 17/8/1 16/8/1 15/8/1
f 18/8/1 16/8/1 17/8/1
f 19/4/1 18/4/1 17/4/1
f 20/4/1 18/4/1 19/4/1
f 23/5/1 22/5/1 21/5/1
f 24/5/1 22/5/1 23/5/1
f 25/8/1 24/8/1 23/8/1
f 26/8/1 24/8/1 25/8/1
f 27/5/1 26/5/1 25/5/1
f 28/5/1 26/5/1 27/5/1
f 32/1/1 30/1/1 29/1/1
f 32/1/1 31/1/1 30/1/1
f 33/1/1 31/1/1 32/1/1
f 34/8/1 33/8/1 32/8/1
f 35/8/1 33/8/1 34/8/1
f 36/1/1 35/1/1 34/1/1
f 37/1/1 35/1/1 36/1/1
f 38/1/1 35/1/1 37/1/1
f 42/6/1 40/6/1 39/6/1
f 42/6/1 41/6/1 40/6/1
f 43/6/1 41/6/1 42/6/1
f 46/6/1 45/6/1 44/6/1
f 47/6/1 45/6/1 46/6/1
f 50/7/1 49/7/1 48/7/1
f 51/7/1 49/7/1 50/7/1
f 54/1/1 53/1/1 52/1/1
f 55/1/1 53/1/1 54/1/1
f 56/8/1 55/8/1 54/8/1
f 57/8/1 55/8/1 56/8/1
f 58/1/1 57/1/1 56/1/1
f 59/1/1 57/1/1 58/1/1
f 60/1/1 57/1/1 59/1/1
f 63/3/1 62/3/1 61/3/1
f 64/3/1 62/3/1 63/3/1
f 67/3/1 66/3/1 65/3/1
f 68/3/1 66/3/1 67/3/1
f 73/8/1 70/8/1 69/8/1
f 74/8/1 70/8/1 73/8/1
f 75/8/1 72/8/1 71/8/1
f 76/8/1 72/8/1 75/8/1
f 81/2/1 78/2/1 77/2/1
f 82/2/1 78/2/1 81/2/1
f 83/2/1 80/2/1 79/2/1
f 84/2/1 80/2/1 83/2/1
f 88/6/1 86/6/1 85/6/1
f 88/6/1 87/6/1 86/6/1
f 89/6/1 87/6/1 88/6/1
f 92/6/1 91/6/1 90/6/1
f 93/6/1 91/6/1 92/6/1
f 94/6/1 91/6/1 93/6/1
f 97/7/1 96/7/1 95/7/1
f 98/7/1 96/7/1 97/7/1
f 101/7/1 100/7/1 99/7/1
f 102/7/1 100/7/1 101/7/1
f 107/8/1 104/8/1 103/8/1
f 108/8/1 104/8/1 107/8/1
f 109/8/1 106/8/1 105/8/1
f 110/8/1 106/8/1 109/8/1
f 115/8/1 112/8/1 111/8/1
f 116/8/1 112/8/1 115/8/1
f 117/8/1 114/8/1 113/8/1
f 118/8/1 114/8/1 117/8/1
f 119/2/2 120/2/2 123/2/2
f 123/2/2 120/2/2 124/2/2
f 121/2/2 122/2/2 125/2/2
f 125/2/2 122/2/2 126/2/2
f 127/8/2 128/8/2 131/8/2
f 131/8/2 128/8/2 132/8/2
f 129/8/2 130/8/2 133/8/2
f 133/8/2 130/8/2 134/8/2
f 135/8/2 136/8/2 139/8/2
f 139/8/2 136/8/2 140/8/2
f 137/8/2 138/8/2 141/8/2
f 141/8/2 138/8/2 142/8/2
f 143/8/2 144/8/2 147/8/2
f 147/8/2 144/8/2 148/8/2
f 145/8/2 146/8/2 149/8/2
f 149/8/2 146/8/2 150/8/2
f 151/7/2 152/7/2 153/7/2
f 153/7/2 152/7/2 154/7/2
f 155/7/2 156/7/2 157/7/2
f 157/7/2 156/7/2 158/7/2
f 159/4/2 160/4/2 161/4/2
f 161/4/2 160/4/2 162/4/2
f 163/4/2 164/4/2 165/4/2
f 165/4/2 164/4/2 166/4/2
f 166/4/2 164/4/2 167/4/2
f 168/5/2 169/5/2 171/5/2
f 169/5/2 170/5/2 171/5/2
f 171/5/2 170/5/2 172/5/2
f 173/5/2 174/5/2 175/5/2
f 175/5/2 174/5/2 176/5/2
f 176/5/2 174/5/2 177/5/2
f 178/7/2 179/7/2 180/7/2
f 180/7/2 179/7/2 181/7/2
f 182/8/2 183/8/2 186/8/2
f 186/8/2 183/8/2 187/8/2
f 184/8/2 185/8/2 188/8/2
f 188/8/2 185/8/2 189/8/2
f 190/1/2 191/1/2 193/1/2
f 191/1/2 192/1/2 193/1/2
f 193/1/2 192/1/2 194/1/2
f 195/1/2 196/1/2 197/1/2
f 197/1/2 196/1/2 198/1/2
f 199/6/2 200/6/2 201/6/2
f 201/6/2 200/6/2 202/6/2
f 201/8/2 202/8/2 203/8/2
f 203/8/2 202/8/2 204/8/2
f 203/6/2 204/6/2 205/6/2
f 205/6/2 204/6/2 206/6/2
f 207/2/2 208/2/2 211/2/2
f 211/2/2 208/2/2 212/2/2
f 209/2/2 210/2/2 213/2/2
f 213/2/2 210/2/2 214/2/2
f 215/2/2 216/2/2 217/2/2
f 217/2/2 216/2/2 218/2/2
f 218/2/2 216/2/2 219/2/2
f 219/2/2 216/2/2 220/2/2
f 221/7/2 222/7/2 223/7/2
f 223/7/2 222/7/2 224/7/2
f 225/1/2 226/1/2 227/1/2
f 227/1/2 226/1/2 228/1/2
f 229/1/2 230/1/2 231/1/2
f 231/1/2 230/1/2 232/1/2
f 232/1/2 230/1/2 233/1/2
f 234/3/2 235/3/2 237/3/2
f 235/3/2 236/3/2 237/3/2
f 237/3/2 236/3/2 238/3/2
f 237/8/2 238/8/2 239/8/2
f 239/8/2 238/8/2 240/8/2
f 239/3/2 240/3/2 241/3/2
f 241/3/2 240/3/2 242/3/2
f 243/6/2 244/6/2 245/6/2
f 245/6/2 244/6/2 246/6/2
f 245/8/2 246/8/2 247/8/2
f 247/8/2 246/8/2 248/8/2
f 247/6/2 248/6/2 249/6/2
f 249/6/2 248/6/2 250/6/2
f 253/2/3 252/2/3 251/2/3
f 254/2/3 252/2/3 253/2/3
f 257/2/3 256/2/3 255/2/3
f 258/2/3 256/2/3 257/2/3
f 263/1/3 260/1/3 259/1/3
f 263/8/3 261/8/3 260/8/3
f 264/1/3 262/1/3 261/1/3
f 264/8/3 261/8/3 263/8/3
f 269/1/3 263/1/3 259/1/3
f 270/1/3 263/1/3 269/1/3
f 271/1/3 262/1/3 264/1/3
f 272/1/3 262/1/3 271/1/3
f 275/6/3 266/6/3 265/6/3
f 276/6/3 266/6/3 275/6/3
f 277/6/3 268/6/3 267/6/3
f 280/6/3 276/6/3 275/6/3
f 280/3/3 275/3/3 274/3/3
f 281/8/3 277/8/3 276/8/3
f 281/6/3 276/6/3 280/6/3
f 282/6/3 268/6/3 277/6/3
f 282/8/3 277/8/3 281/8/3
f 283/6/3 268/6/3 282/6/3
f 284/2/3 279/2/3 278/2/3
f 285/2/3 279/2/3 284/2/3
f 286/3/3 273/3/3 272/3/3
f 287/3/3 280/3/3 274/3/3
f 288/3/3 286/3/3 272/3/3
f 289/8/3 287/8/3 286/8/3
f 289/3/3 286/3/3 288/3/3
f 290/3/3 280/3/3 287/3/3
f 290/8/3 287/8/3 289/8/3
f 291/3/3 280/3/3 290/3/3
f 296/5/3 293/5/3 292/5/3
f 296/8/3 294/8/3 293/8/3
f 297/5/3 295/5/3 294/5/3
f 297/8/3 294/8/3 296/8/3
f 298/5/3 296/5/3 292/5/3
f 301/5/3 295/5/3 297/5/3
f 304/5/3 296/5/3 298/5/3
f 305/5/3 296/5/3 304/5/3
f 306/5/3 301/5/3 297/5/3
f 307/5/3 301/5/3 306/5/3
f 312/7/3 300/7/3 299/7/3
f 313/7/3 300/7/3 312/7/3
f 314/1/3 309/1/3 308/1/3
f 314/8/3 310/8/3 309/8/3
f 315/1/3 311/1/3 310/1/3
f 315/8/3 310/8/3 314/8/3
f 316/1/3 311/1/3 315/1/3
f 317/7/3 303/7/3 302/7/3
f 318/7/3 303/7/3 317/7/3
f 321/1/3 314/1/3 308/1/3
f 322/1/3 314/1/3 321/1/3
f 323/1/3 314/1/3 322/1/3
f 324/1/3 316/1/3 315/1/3
f 325/1/3 316/1/3 324/1/3
f 326/7/3 320/7/3 319/7/3
f 327/7/3 320/7/3 326/7/3
f 332/4/3 329/4/3 328/4/3
f 332/8/3 330/8/3 329/8/3
f 333/4/3 331/4/3 330/4/3
f 333/8/3 330/8/3 332/8/3
f 336/4/3 331/4/3 333/4/3
f 337/7/3 335/7/3 334/7/3
f 338/7/3 335/7/3 337/7/3
f 339/4/3 332/4/3 328/4/3
f 340/4/3 332/4/3 339/4/3
f 341/4/3 336/4/3 333/4/3
f 342/4/3 336/4/3 341/4/3
f 345/7/3 344/7/3 343/7/3
f 346/7/3 344/7/3 345/7/3
f 349/7/3 348/7/3 347/7/3
f 350/7/3 348/7/3 349/7/3
f 355/6/3 352/6/3 351/6/3
f 356/6/3 352/6/3 355/6/3
f 357/6/3 354/6/3 353/6/3
f 358/6/3 354/6/3 357/6/3
f 359/6/3 356/6/3 355/6/3
f 360/8/3 357/8/3 356/8/3
f 360/6/3 356/6/3 359/6/3
f 361/6/3 358/6/3 357/6/3
f 361/8/3 357/8/3 360/8/3
f 362/6/3 358/6/3 361/6/3
f 365/7/3 364/7/3 363/7/3
f 366/7/3 364/7/3 365/7/3
f 369/2/3 368/2/3 367/2/3
f 370/2/3 368/2/3 369/2/3
f 373/2/3 372/2/3 371/2/3
f 374/2/3 372/2/3 373/2/3
f 375/2/4 376/2/4 377/2/4
f 377/2/4 376/2/4 378/2/4
f 379/2/4 380/2/4 381/2/4
f 381/2/4 380/2/4 382/2/4
f 383/7/4 384/7/4 387/7/4
f 387/7/4 384/7/4 388/7/4
f 385/7/4 386/7/4 389/7/4
f 389/7/4 386/7/4 390/7/4
f 391/7/4 392/7/4 393/7/4
f 393/7/4 392/7/4 394/7/4
f 397/1/4 398/1/4 401/1/4
f 398/8/4 399/8/4 401/8/4
f 399/1/4 400/1/4 402/1/4
f 401/8/4 399/8/4 402/8/4
f 395/7/4 396/7/4 407/7/4
f 407/7/4 396/7/4 408/7/4
f 397/1/4 401/1/4 409/1/4
f 402/1/4 400/1/4 410/1/4
f 403/6/4 404/6/4 411/6/4
f 409/1/4 401/1/4 412/1/4
f 412/1/4 401/1/4 415/1/4
f 415/1/4 401/1/4 416/1/4
f 402/1/4 410/1/4 417/1/4
f 417/1/4 410/1/4 418/1/4
f 411/6/4 404/6/4 421/6/4
f 421/6/4 404/6/4 422/6/4
f 405/6/4 406/6/4 423/6/4
f 418/3/4 419/3/4 424/3/4
f 421/6/4 422/6/4 425/6/4
f 420/3/4 421/3/4 425/3/4
f 422/8/4 423/8/4 426/8/4
f 425/6/4 422/6/4 426/6/4
f 423/6/4 406/6/4 427/6/4
f 426/8/4 423/8/4 427/8/4
f 427/6/4 406/6/4 428/6/4
f 413/7/4 414/7/4 429/7/4
f 429/7/4 414/7/4 430/7/4
f 424/3/4 419/3/4 431/3/4
f 420/3/4 425/3/4 432/3/4
f 424/3/4 431/3/4 433/3/4
f 431/8/4 432/8/4 434/8/4
f 433/3/4 431/3/4 434/3/4
f 432/3/4 425/3/4 435/3/4
f 434/8/4 432/8/4 435/8/4
f 435/3/4 425/3/4 436/3/4
f 437/5/4 438/5/4 443/5/4
f 438/8/4 439/8/4 443/8/4
f 439/5/4 440/5/4 444/5/4
f 443/8/4 439/8/4 444/8/4
f 441/7/4 442/7/4 445/7/4
f 445/7/4 442/7/4 446/7/4
f 437/5/4 443/5/4 447/5/4
f 447/5/4 443/5/4 448/5/4
f 444/5/4 440/5/4 449/5/4
f 449/5/4 440/5/4 450/5/4
f 451/1/4 452/1/4 455/1/4
f 452/8/4 453/8/4 455/8/4
f 453/1/4 454/1/4 456/1/4
f 455/8/4 453/8/4 456/8/4
f 456/1/4 454/1/4 457/1/4
f 451/1/4 455/1/4 458/1/4
f 458/1/4 455/1/4 459/1/4
f 459/1/4 455/1/4 460/1/4
f 456/1/4 457/1/4 461/1/4
f 461/1/4 457/1/4 462/1/4
f 463/2/4 464/2/4 469/2/4
f 469/2/4 464/2/4 470/2/4
f 465/4/4 466/4/4 471/4/4
f 466/8/4 467/8/4 471/8/4
f 467/4/4 468/4/4 472/4/4
f 471/8/4 467/8/4 472/8/4
f 465/4/4 471/4/4 473/4/4
f 473/4/4 471/4/4 474/4/4
f 472/4/4 468/4/4 475/4/4
f 475/4/4 468/4/4 476/4/4
f 477/2/4 478/2/4 479/2/4
f 479/2/4 478/2/4 480/2/4
f 481/2/4 482/2/4 485/2/4
f 485/2/4 482/2/4 486/2/4
f 483/7/4 484/7/4 487/7/4
f 487/7/4 484/7/4 488/7/4
f 489/6/4 490/6/4 493/6/4
f 491/6/4 492/6/4 494/6/4
f 489/6/4 493/6/4 495/6/4
f 493/8/4 494/8/4 496/8/4
f 495/6/4 493/6/4 496/6/4
f 494/6/4 492/6/4 497/6/4
f 496/8/4 494/8/4 497/8/4
f 497/6/4 492/6/4 498/6/4
f 503/2/5 500/2/5 499/2/5
f 504/2/5 500/2/5 503/2/5
f 505/2/5 502/2/5 501/2/5
f 506/2/5 502/2/5 505/2/5
f 511/2/5 508/2/5 507/2/5
f 512/2/5 508/2/5 511/2/5
f 513/2/5 510/2/5 509/2/5
f 514/2/5 510/2/5 513/2/5
f 517/2/5 516/2/5 515/2/5
f 518/2/5 516/2/5 517/2/5
f 519/2/5 516/2/5 518/2/5
f 520/2/5 516/2/5 519/2/5
f 521/2/5 517/2/5 515/2/5
f 522/2/5 519/2/5 518/2/5
f 523/2/5 519/2/5 522/2/5
f 524/2/5 516/2/5 520/2/5
f 525/2/5 523/2/5 522/2/5
f 525/2/5 524/2/5 523/2/5
f 525/2/5 521/2/5 515/2/5
f 525/2/5 522/2/5 521/2/5
f 526/2/5 524/2/5 525/2/5
f 527/2/5 524/2/5 526/2/5
f 528/2/5 516/2/5 524/2/5
f 528/2/5 524/2/5 527/2/5
f 529/2/5 525/2/5 515/2/5
f 530/2/5 527/2/5 526/2/5
f 531/2/5 527/2/5 530/2/5
f 532/2/5 516/2/5 528/2/5
f 533/2/5 529/2/5 515/2/5
f 533/2/5 532/2/5 531/2/5
f 533/2/5 531/2/5 530/2/5
f 533/2/5 530/2/5 529/2/5
f 534/2/5 516/2/5 532/2/5
f 534/2/5 532/2/5 533/2/5
f 537/1/5 536/1/5 535/1/5
f 538/1/5 536/1/5 537/1/5
f 543/1/5 540/1/5 539/1/5
f 544/1/5 540/1/5 543/1/5
f 545/4/5 542/4/5 541/4/5
f 546/4/5 542/4/5 545/4/5
f 548/1/5 540/1/5 544/1/5
f 550/4/5 542/4/5 546/4/5
f 551/1/5 548/1/5 547/1/5
f 552/1/5 540/1/5 548/1/5
f 552/1/5 548/1/5 551/1/5
f 553/4/5 550/4/5 549/4/5
f 554/4/5 542/4/5 550/4/5
f 554/4/5 550/4/5 553/4/5
f 557/1/5 556/1/5 555/1/5
f 558/1/5 556/1/5 557/1/5
f 559/1/5 557/1/5 555/1/5
f 560/1/5 557/1/5 559/1/5
f 563/1/5 557/1/5 560/1/5
f 564/1/5 557/1/5 563/1/5
f 566/6/5 562/6/5 561/6/5
f 567/6/5 566/6/5 565/6/5
f 568/6/5 562/6/5 566/6/5
f 568/6/5 566/6/5 567/6/5
f 571/1/5 570/1/5 569/1/5
f 572/1/5 570/1/5 571/1/5
f 575/6/5 574/6/5 573/6/5
f 576/6/5 574/6/5 575/6/5
f 578/1/5 570/1/5 572/1/5
f 579/1/5 578/1/5 577/1/5
f 580/1/5 570/1/5 578/1/5
f 580/1/5 578/1/5 579/1/5
f 581/6/5 575/6/5 573/6/5
f 583/6/5 581/6/5 573/6/5
f 583/6/5 582/6/5 581/6/5
f 584/6/5 582/6/5 583/6/5
f 589/3/5 586/3/5 585/3/5
f 590/3/5 586/3/5 589/3/5
f 591/5/5 588/5/5 587/5/5
f 593/3/5 589/3/5 585/3/5
f 594/3/5 589/3/5 593/3/5
f 595/5/5 592/5/5 591/5/5
f 595/5/5 591/5/5 587/5/5
f 596/5/5 592/5/5 595/5/5
f 601/3/5 598/3/5 597/3/5
f 602/3/5 598/3/5 601/3/5
f 603/5/5 600/5/5 599/5/5
f 604/5/5 600/5/5 603/5/5
f 605/3/5 601/3/5 597/3/5
f 608/5/5 600/5/5 604/5/5
f 609/3/5 606/3/5 605/3/5
f 609/3/5 605/3/5 597/3/5
f 610/3/5 606/3/5 609/3/5
f 611/5/5 608/5/5 607/5/5
f 612/5/5 600/5/5 608/5/5
f 612/5/5 608/5/5 611/5/5
f 615/6/5 614/6/5 613/6/5
f 616/6/5 614/6/5 615/6/5
f 617/6/5 614/6/5 616/6/5
f 618/6/5 614/6/5 617/6/5
f 621/6/5 620/6/5 619/6/5
f 622/6/5 620/6/5 621/6/5
f 623/6/5 621/6/5 619/6/5
f 625/6/5 623/6/5 619/6/5
f 625/6/5 624/6/5 623/6/5
f 626/6/5 624/6/5 625/6/5
f 627/2/6 628/2/6 629/2/6
f 629/2/6 628/2/6 630/2/6
f 627/2/6 629/2/6 631/2/6
f 631/2/6 629/2/6 632/2/6
f 632/2/6 629/2/6 633/2/6
f 627/2/6 631/2/6 635/2/6
f 633/2/6 634/2/6 636/2/6
f 632/2/6 633/2/6 636/2/6
f 627/2/6 635/2/6 637/2/6
f 635/2/6 636/2/6 637/2/6
f 636/2/6 634/2/6 638/2/6
f 637/2/6 636/2/6 638/2/6
f 639/1/6 640/1/6 643/1/6
f 643/1/6 640/1/6 644/1/6
f 641/4/6 642/4/6 645/4/6
f 645/4/6 642/4/6 646/4/6
f 644/1/6 640/1/6 648/1/6
f 646/4/6 642/4/6 650/4/6
f 647/1/6 648/1/6 651/1/6
f 648/1/6 640/1/6 652/1/6
f 651/1/6 648/1/6 652/1/6
f 649/4/6 650/4/6 653/4/6
f 650/4/6 642/4/6 654/4/6
f 653/4/6 650/4/6 654/4/6
f 655/1/6 656/1/6 659/1/6
f 659/1/6 656/1/6 660/1/6
f 657/4/6 658/4/6 661/4/6
f 655/1/6 659/1/6 664/1/6
f 663/1/6 664/1/6 665/1/6
f 664/1/6 659/1/6 666/1/6
f 665/1/6 664/1/6 666/1/6
f 661/4/6 662/4/6 667/4/6
f 657/4/6 661/4/6 667/4/6
f 667/4/6 662/4/6 668/4/6
f 669/1/6 670/1/6 671/1/6
f 671/1/6 670/1/6 672/1/6
f 673/6/6 674/6/6 675/6/6
f 675/6/6 674/6/6 676/6/6
f 672/1/6 670/1/6 678/1/6
f 677/1/6 678/1/6 679/1/6
f 678/1/6 670/1/6 680/1/6
f 679/1/6 678/1/6 680/1/6
f 673/6/6 675/6/6 681/6/6
f 673/6/6 681/6/6 683/6/6
f 681/6/6 682/6/6 683/6/6
f 683/6/6 682/6/6 684/6/6
f 685/1/6 686/1/6 687/1/6
f 687/1/6 686/1/6 688/1/6
f 688/1/6 686/1/6 691/1/6
f 691/1/6 686/1/6 692/1/6
f 689/6/6 690/6/6 694/6/6
f 693/6/6 694/6/6 695/6/6
f 694/6/6 690/6/6 696/6/6
f 695/6/6 694/6/6 696/6/6
f 697/3/6 698/3/6 701/3/6
f 701/3/6 698/3/6 702/3/6
f 699/5/6 700/5/6 703/5/6
f 703/5/6 700/5/6 704/5/6
f 697/3/6 701/3/6 705/3/6
f 704/5/6 700/5/6 708/5/6
f 705/3/6 706/3/6 709/3/6
f 697/3/6 705/3/6 709/3/6
f 709/3/6 706/3/6 710/3/6
f 707/5/6 708/5/6 711/5/6
f 708/5/6 700/5/6 712/5/6
f 711/5/6 708/5/6 712/5/6
f 715/5/6 716/5/6 717/5/6
f 713/3/6 714/3/6 719/3/6
f 719/3/6 714/3/6 720/3/6
f 717/5/6 718/5/6 721/5/6
f 715/5/6 717/5/6 721/5/6
f 721/5/6 718/5/6 722/5/6
f 723/6/6 724/6/6 725/6/6
f 725/6/6 724/6/6 726/6/6
f 723/6/6 725/6/6 727/6/6
f 723/6/6 727/6/6 729/6/6
f 727/6/6 728/6/6 729/6/6
f 729/6/6 728/6/6 730/6/6
f 731/6/6 732/6/6 733/6/6
f 733/6/6 732/6/6 734/6/6
