# Blender 5.0.1
# www.blender.org
mtllib Celling_L2_m5.mtl
o Celiling
v 257.446625 18.900000 8.946121
v 257.446625 18.900000 153.980469
v 257.446625 19.100000 8.946121
v 112.721008 18.900000 8.946121
v 112.721008 18.900000 153.980469
v 112.721008 19.100000 8.946121
v 112.721008 19.100000 153.980469
v 257.446625 19.100000 153.980469
v 112.325684 18.900000 5.755997
v 112.325684 18.900000 177.445984
v 112.325684 19.100000 5.755997
v 40.325684 18.900000 5.755997
v 40.325684 18.900000 177.445984
v 40.325684 19.100000 5.755997
v 40.325684 19.100000 177.445984
v 112.325684 19.100000 177.445984
vn -0.0000 -1.0000 -0.0000
vn 1.0000 -0.0000 -0.0000
vn -0.0000 -0.0000 -1.0000
vn -1.0000 -0.0000 -0.0000
vn -0.0000 1.0000 -0.0000
vn -0.0000 -0.0000 1.0000
vt -2.138788 1.988590
vt 1.260702 1.988590
vt 1.260702 -1.418152
vt -2.138788 -1.418152
vt -0.984175 0.401934
vt -0.984175 0.406632
vt 2.422602 0.406632
vt 2.422602 0.401934
vt 1.260720 0.401934
vt 1.260720 0.406632
vt -2.138806 0.406632
vt -2.138806 0.401934
vt -1.059111 0.401934
vt -1.059111 0.406632
vt 2.973792 0.406632
vt 2.973792 0.401934
vt 1.269988 2.539777
vt 2.961211 2.539777
vt 2.961211 -1.493086
vt 1.269988 -1.493086
vt 2.961220 0.401934
vt 2.961220 0.406632
vt 1.269979 0.406632
vt 1.269979 0.401934
s 0
usemtl Material.024
f 2/1/1 5/2/1 4/3/1 1/4/1
f 1/5/2 3/6/2 8/7/2 2/8/2
f 4/9/3 6/10/3 3/11/3 1/12/3
f 5/8/4 7/7/4 6/6/4 4/5/4
f 7/2/5 8/1/5 3/4/5 6/3/5
f 2/12/6 8/11/6 7/10/6 5/9/6
usemtl Material.002
f 9/13/2 11/14/2 16/15/2 10/16/2
f 10/17/1 13/18/1 12/19/1 9/20/1
f 12/21/3 14/22/3 11/23/3 9/24/3
f 13/16/4 15/15/4 14/14/4 12/13/4
f 15/18/5 16/17/5 11/20/5 14/19/5
f 10/24/6 16/23/6 15/22/6 13/21/6
