# Blender 5.0.1
# www.blender.org
mtllib Treasure_4.mtl
o Treasure_4
v -2.200000 2.300000 0.400000
v -2.200000 2.300000 -0.400000
v -2.200000 3.800000 0.400000
v -2.200000 3.800000 -0.400000
v -2.100000 1.600000 0.400000
v -2.100000 1.600000 -0.400000
v -2.100000 2.300000 0.400000
v -2.100000 2.300000 -0.400000
v -2.000000 3.800000 0.400000
v -2.000000 3.800000 -0.400000
v -2.000000 4.400001 0.400000
v -2.000000 4.400001 -0.400000
v -1.800000 4.400001 0.400000
v -1.800000 4.400001 -0.400000
v -1.800000 5.000000 0.400000
v -1.800000 5.000000 -0.400000
v -1.700000 0.900000 0.400000
v -1.700000 0.900000 -0.400000
v -1.700000 1.600000 0.400000
v -1.700000 1.600000 -0.400000
v -1.500000 5.000000 0.400000
v -1.500000 5.000000 -0.400000
v -1.500000 5.400001 0.400000
v -1.500000 5.400001 -0.400000
v -1.400000 0.500000 0.400000
v -1.400000 0.500000 -0.400000
v -1.400000 0.900000 0.400000
v -1.400000 0.900000 -0.400000
v -1.200000 0.300000 0.400000
v -1.200000 0.300000 -0.400000
v -1.200000 0.500000 0.400000
v -1.200000 0.500000 -0.400000
v -1.100000 5.400001 0.400000
v -1.100000 5.400001 -0.400000
v -1.100000 5.700000 0.400000
v -1.100000 5.700000 -0.400000
v -0.900000 0.000000 0.400000
v -0.900000 -0.000000 -0.400000
v -0.900000 0.300000 0.400000
v -0.900000 0.300000 -0.400000
v 0.900000 0.000000 0.400000
v 0.900000 -0.000000 -0.400000
v 0.900000 0.300000 0.400000
v 0.900000 0.300000 -0.400000
v 1.100000 5.400001 0.400000
v 1.100000 5.400001 -0.400000
v 1.100000 5.700000 0.400000
v 1.100000 5.700000 -0.400000
v 1.200000 0.300000 0.400000
v 1.200000 0.300000 -0.400000
v 1.200000 0.500000 0.400000
v 1.200000 0.500000 -0.400000
v 1.400000 0.500000 0.400000
v 1.400000 0.500000 -0.400000
v 1.400000 0.900000 0.400000
v 1.400000 0.900000 -0.400000
v 1.500000 5.000000 0.400000
v 1.500000 5.000000 -0.400000
v 1.500000 5.400001 0.400000
v 1.500000 5.400001 -0.400000
v 1.700000 0.900000 0.400000
v 1.700000 0.900000 -0.400000
v 1.700000 1.600000 0.400000
v 1.700000 1.600000 -0.400000
v 1.800000 4.400001 0.400000
v 1.800000 4.400001 -0.400000
v 1.800000 5.000000 0.400000
v 1.800000 5.000000 -0.400000
v 2.000000 3.800000 0.400000
v 2.000000 3.800000 -0.400000
v 2.000000 4.400001 0.400000
v 2.000000 4.400001 -0.400000
v 2.100000 1.600000 0.400000
v 2.100000 1.600000 -0.400000
v 2.100000 2.300000 0.400000
v 2.100000 2.300000 -0.400000
v 2.200000 2.300000 0.400000
v 2.200000 2.300000 -0.400000
v 2.200000 3.800000 0.400000
v 2.200000 3.800000 -0.400000
vn 1.0000 -0.0000 -0.0000
vn -0.0000 -0.0000 -1.0000
vn -0.0000 -1.0000 -0.0000
vn -0.0000 1.0000 -0.0000
vn -1.0000 -0.0000 -0.0000
vn -0.0000 -0.0000 1.0000
vt 0.527344 0.064453
vt 0.480469 0.126953
vt 0.480469 0.064453
vt 0.408203 0.640625
vt 0.611328 0.609375
vt 0.626953 0.343750
vt 0.378906 0.193359
vt 0.347656 0.255859
vt 0.347656 0.193359
vt 0.312500 0.569336
vt 0.281250 0.506836
vt 0.312500 0.506836
vt 0.604492 0.000977
vt 0.581055 0.063477
vt 0.581055 0.000977
vt 0.147461 0.574219
vt 0.124023 0.511719
vt 0.147461 0.511719
vt 0.237305 0.633789
vt 0.221680 0.571289
vt 0.237305 0.571289
vt 0.065430 0.511719
vt 0.034180 0.574219
vt 0.065430 0.574219
vt 0.123047 0.574219
vt 0.099609 0.511719
vt 0.123047 0.511719
vt 0.220703 0.511719
vt 0.197266 0.574219
vt 0.197266 0.511719
vt 0.000977 0.001953
vt 0.032227 0.064453
vt 0.032227 0.001953
vt 0.623047 0.064453
vt 0.607422 0.126953
vt 0.623047 0.126953
vt 0.584961 0.064453
vt 0.561523 0.126953
vt 0.584961 0.126953
vt 0.595703 0.128906
vt 0.611328 0.191406
vt 0.611328 0.128906
vt 0.265625 0.441406
vt 0.320312 0.503906
vt 0.320312 0.441406
vt 0.570312 0.128906
vt 0.593750 0.191406
vt 0.593750 0.128906
vt 0.102539 0.023438
vt 0.258789 0.421875
vt 0.086914 0.421875
vt 0.620117 0.193359
vt 0.604492 0.255859
vt 0.604492 0.193359
vt 0.117188 0.447266
vt 0.000000 0.509766
vt 0.000000 0.447266
vt 0.032227 0.511719
vt 0.000977 0.574219
vt 0.032227 0.574219
vt 0.175781 0.447266
vt 0.230469 0.509766
vt 0.230469 0.447266
vt 0.478516 0.126953
vt 0.337891 0.064453
vt 0.478516 0.064453
vt 0.098633 0.574219
vt 0.067383 0.511719
vt 0.098633 0.511719
vt 0.172852 0.511719
vt 0.196289 0.574219
vt 0.196289 0.511719
vt 0.475586 0.000977
vt 0.522461 0.063477
vt 0.522461 0.000977
vt 0.474609 0.000977
vt 0.302734 0.063477
vt 0.474609 0.063477
vt 0.520508 0.128906
vt 0.465820 0.191406
vt 0.465820 0.128906
vt 0.560547 0.064453
vt 0.529297 0.126953
vt 0.529297 0.064453
vt 0.346680 0.128906
vt 0.463867 0.191406
vt 0.463867 0.128906
vt 0.232422 0.506836
vt 0.279297 0.569336
vt 0.279297 0.506836
vt 0.602539 0.064453
vt 0.586914 0.126953
vt 0.602539 0.126953
vt 0.628906 0.191406
vt 0.613281 0.128906
vt 0.628906 0.128906
vt 0.580078 0.000977
vt 0.556641 0.063477
vt 0.580078 0.063477
vt 0.041016 0.064453
vt 0.033203 0.001953
vt 0.041016 0.001953
vt 0.623047 0.000977
vt 0.607422 0.063477
vt 0.623047 0.063477
vt 0.171875 0.574219
vt 0.148438 0.511719
vt 0.171875 0.511719
vt 0.525391 0.000977
vt 0.556641 0.000977
vt 0.569336 0.128906
vt 0.522461 0.191406
vt 0.522461 0.128906
vt 0.024414 0.434570
vt 0.000977 0.372070
vt 0.024414 0.372070
vt 0.337891 0.628906
vt 0.330078 0.566406
vt 0.337891 0.566406
vt 0.173828 0.447266
vt 0.119141 0.509766
vt 0.119141 0.447266
vt 0.329102 0.540039
vt 0.313477 0.602539
vt 0.329102 0.602539
vt 0.527344 0.126953
vt 0.423828 0.242188
vt 0.400391 0.242188
vt 0.400391 0.257812
vt 0.384766 0.257812
vt 0.384766 0.289062
vt 0.361328 0.289062
vt 0.361328 0.343750
vt 0.330078 0.343750
vt 0.330078 0.398438
vt 0.322266 0.398438
vt 0.322266 0.515625
vt 0.337891 0.515625
vt 0.337891 0.562500
vt 0.353516 0.562500
vt 0.353516 0.609375
vt 0.376953 0.609375
vt 0.564453 0.218750
vt 0.423828 0.218750
vt 0.587891 0.257812
vt 0.587891 0.242188
vt 0.564453 0.242188
vt 0.376953 0.640625
vt 0.603516 0.289062
vt 0.603516 0.257812
vt 0.626953 0.289062
vt 0.658203 0.398438
vt 0.658203 0.343750
vt 0.666016 0.515625
vt 0.666016 0.398438
vt 0.634766 0.562500
vt 0.650391 0.562500
vt 0.650391 0.515625
vt 0.634766 0.609375
vt 0.408203 0.664062
vt 0.580078 0.664062
vt 0.580078 0.640625
vt 0.611328 0.640625
vt 0.378906 0.255859
vt 0.281250 0.569336
vt 0.604492 0.063477
vt 0.124023 0.574219
vt 0.221680 0.633789
vt 0.034180 0.511719
vt 0.099609 0.574219
vt 0.220703 0.574219
vt 0.000977 0.064453
vt 0.607422 0.064453
vt 0.561523 0.064453
vt 0.595703 0.191406
vt 0.265625 0.503906
vt 0.570312 0.191406
vt 0.102539 0.000000
vt 0.243164 0.000000
vt 0.243164 0.023438
vt 0.266602 0.023438
vt 0.266602 0.039062
vt 0.079102 0.039062
vt 0.079102 0.023438
vt 0.063477 0.070312
vt 0.063477 0.039062
vt 0.040039 0.125000
vt 0.040039 0.070312
vt 0.008789 0.179688
vt 0.008789 0.125000
vt 0.000977 0.296875
vt 0.000977 0.179688
vt 0.032227 0.343750
vt 0.016602 0.343750
vt 0.016602 0.296875
vt 0.055664 0.390625
vt 0.032227 0.390625
vt 0.282227 0.039062
vt 0.282227 0.070312
vt 0.305664 0.070312
vt 0.305664 0.125000
vt 0.336914 0.125000
vt 0.336914 0.179688
vt 0.344727 0.179688
vt 0.344727 0.296875
vt 0.329102 0.296875
vt 0.329102 0.343750
vt 0.313477 0.343750
vt 0.313477 0.390625
vt 0.290039 0.390625
vt 0.055664 0.421875
vt 0.290039 0.421875
vt 0.258789 0.445312
vt 0.086914 0.445312
vt 0.620117 0.255859
vt 0.117188 0.509766
vt 0.000977 0.511719
vt 0.175781 0.509766
vt 0.337891 0.126953
vt 0.067383 0.574219
vt 0.172852 0.574219
vt 0.475586 0.063477
vt 0.302734 0.000977
vt 0.520508 0.191406
vt 0.560547 0.126953
vt 0.346680 0.191406
vt 0.232422 0.569336
vt 0.586914 0.064453
vt 0.613281 0.191406
vt 0.033203 0.064453
vt 0.607422 0.000977
vt 0.148438 0.574219
vt 0.525391 0.063477
vt 0.569336 0.191406
vt 0.000977 0.434570
vt 0.330078 0.628906
vt 0.173828 0.509766
vt 0.313477 0.540039
s 0
usemtl Treasure_4_Material.001
f 72/1/1 69/2/1 70/3/1
f 34/4/2 58/5/2 64/6/2
f 60/7/1 57/8/1 58/9/1
f 73/10/3 64/11/3 74/12/3
f 48/13/1 45/14/1 46/15/1
f 49/16/3 44/17/3 50/18/3
f 53/19/3 52/20/3 54/21/3
f 60/22/4 45/23/4 59/24/4
f 39/25/3 30/26/3 40/27/3
f 44/28/1 41/29/1 42/30/1
f 22/31/5 23/32/5 24/33/5
f 72/34/4 65/35/4 71/36/4
f 68/37/4 57/38/4 67/39/4
f 30/40/5 31/41/5 32/42/5
f 18/43/5 19/44/5 20/45/5
f 34/46/5 35/47/5 36/48/5
f 39/49/6 45/50/6 33/51/6
f 52/52/1 49/53/1 50/54/1
f 80/55/1 77/56/1 78/57/1
f 34/58/4 23/59/4 33/60/4
f 6/61/5 7/62/5 8/63/5
f 41/64/3 38/65/3 42/66/3
f 19/67/3 6/68/3 20/69/3
f 38/70/5 39/71/5 40/72/5
f 10/73/5 11/74/5 12/75/5
f 48/76/4 35/77/4 47/78/4
f 76/79/1 73/80/1 74/81/1
f 56/82/1 53/83/1 54/84/1
f 2/85/5 3/86/5 4/87/5
f 14/88/5 15/89/5 16/90/5
f 80/91/4 69/92/4 79/93/4
f 31/94/3 26/95/3 32/96/3
f 22/97/4 15/98/4 21/99/4
f 7/100/3 2/101/3 8/102/3
f 14/103/4 11/104/4 13/105/4
f 61/106/3 56/107/3 62/108/3
f 26/109/5 27/98/5 28/110/5
f 68/111/1 65/112/1 66/113/1
f 27/114/3 18/115/3 28/116/3
f 77/117/3 76/118/3 78/119/3
f 64/120/1 61/121/1 62/122/1
f 10/123/4 3/124/4 9/125/4
f 72/1/1 71/126/1 69/2/1
f 40/127/2 30/128/2 32/129/2
f 32/129/2 26/130/2 28/131/2
f 28/131/2 18/132/2 20/133/2
f 20/133/2 6/134/2 8/135/2
f 8/135/2 2/136/2 4/137/2
f 10/138/2 12/139/2 14/140/2
f 8/135/2 4/137/2 10/138/2
f 32/129/2 28/131/2 20/133/2
f 20/133/2 8/135/2 10/138/2
f 14/140/2 16/141/2 22/142/2
f 20/133/2 10/138/2 14/140/2
f 40/127/2 32/129/2 20/133/2
f 42/143/2 38/144/2 40/127/2
f 52/145/2 50/146/2 44/147/2
f 44/147/2 42/143/2 40/127/2
f 40/127/2 20/133/2 14/140/2
f 22/142/2 24/148/2 34/4/2
f 40/127/2 14/140/2 22/142/2
f 52/145/2 44/147/2 40/127/2
f 56/149/2 54/150/2 52/145/2
f 64/6/2 62/151/2 56/149/2
f 76/152/2 74/153/2 64/6/2
f 80/154/2 78/155/2 76/152/2
f 66/156/2 72/157/2 70/158/2
f 70/158/2 80/154/2 76/152/2
f 64/6/2 56/149/2 52/145/2
f 70/158/2 76/152/2 64/6/2
f 58/5/2 68/159/2 66/156/2
f 66/156/2 70/158/2 64/6/2
f 64/6/2 52/145/2 40/127/2
f 40/127/2 22/142/2 34/4/2
f 34/4/2 36/160/2 48/161/2
f 46/162/2 60/163/2 58/5/2
f 34/4/2 48/161/2 46/162/2
f 64/6/2 40/127/2 34/4/2
f 58/5/2 66/156/2 64/6/2
f 34/4/2 46/162/2 58/5/2
f 60/7/1 59/164/1 57/8/1
f 73/10/3 63/165/3 64/11/3
f 48/13/1 47/166/1 45/14/1
f 49/16/3 43/167/3 44/17/3
f 53/19/3 51/168/3 52/20/3
f 60/22/4 46/169/4 45/23/4
f 39/25/3 29/170/3 30/26/3
f 44/28/1 43/171/1 41/29/1
f 22/31/5 21/172/5 23/32/5
f 72/34/4 66/173/4 65/35/4
f 68/37/4 58/174/4 57/38/4
f 30/40/5 29/175/5 31/41/5
f 18/43/5 17/176/5 19/44/5
f 34/46/5 33/177/5 35/47/5
f 39/49/6 37/178/6 41/179/6
f 43/180/6 49/181/6 51/182/6
f 39/49/6 41/179/6 43/180/6
f 31/183/6 29/184/6 39/49/6
f 27/185/6 25/186/6 31/183/6
f 19/187/6 17/188/6 27/185/6
f 7/189/6 5/190/6 19/187/6
f 3/191/6 1/192/6 7/189/6
f 13/193/6 11/194/6 9/195/6
f 9/195/6 3/191/6 7/189/6
f 19/187/6 27/185/6 31/183/6
f 9/195/6 7/189/6 19/187/6
f 21/196/6 15/197/6 13/193/6
f 13/193/6 9/195/6 19/187/6
f 19/187/6 31/183/6 39/49/6
f 39/49/6 43/180/6 51/182/6
f 51/182/6 53/198/6 55/199/6
f 55/199/6 61/200/6 63/201/6
f 63/201/6 73/202/6 75/203/6
f 75/203/6 77/204/6 79/205/6
f 69/206/6 71/207/6 65/208/6
f 75/203/6 79/205/6 69/206/6
f 51/182/6 55/199/6 63/201/6
f 63/201/6 75/203/6 69/206/6
f 65/208/6 67/209/6 57/210/6
f 63/201/6 69/206/6 65/208/6
f 39/49/6 51/182/6 63/201/6
f 13/193/6 19/187/6 39/49/6
f 33/51/6 23/211/6 21/196/6
f 21/196/6 13/193/6 39/49/6
f 39/49/6 63/201/6 65/208/6
f 57/210/6 59/212/6 45/50/6
f 39/49/6 65/208/6 57/210/6
f 33/51/6 21/196/6 39/49/6
f 47/213/6 35/214/6 33/51/6
f 39/49/6 57/210/6 45/50/6
f 45/50/6 47/213/6 33/51/6
f 52/52/1 51/215/1 49/53/1
f 80/55/1 79/216/1 77/56/1
f 34/58/4 24/217/4 23/59/4
f 6/61/5 5/218/5 7/62/5
f 41/64/3 37/219/3 38/65/3
f 19/67/3 5/220/3 6/68/3
f 38/70/5 37/221/5 39/71/5
f 10/73/5 9/222/5 11/74/5
f 48/76/4 36/223/4 35/77/4
f 76/79/1 75/224/1 73/80/1
f 56/82/1 55/225/1 53/83/1
f 2/85/5 1/226/5 3/86/5
f 14/88/5 13/227/5 15/89/5
f 80/91/4 70/228/4 69/92/4
f 31/94/3 25/229/3 26/95/3
f 22/97/4 16/110/4 15/98/4
f 7/100/3 1/230/3 2/101/3
f 14/103/4 12/231/4 11/104/4
f 61/106/3 55/232/3 56/107/3
f 26/109/5 25/233/5 27/98/5
f 68/111/1 67/234/1 65/112/1
f 27/114/3 17/235/3 18/115/3
f 77/117/3 75/236/3 76/118/3
f 64/120/1 63/237/1 61/121/1
f 10/123/4 4/238/4 3/124/4
