# Blender 4.5.3 LTS
# www.blender.org
mtllib Treasure_3.mtl
o Treasure_3
v -0.150000 -0.000000 0.660000
v -0.150000 1.710000 0.660000
v -0.150000 1.710000 -0.660000
v 0.180000 0.000000 0.660000
v 0.180000 1.710000 0.660000
v 0.180000 0.000000 -0.660000
v -0.150000 -0.000000 -0.660000
v 0.180000 1.710000 -0.660000
vn 1.0000 -0.0000 -0.0000
vn -0.0000 -1.0000 -0.0000
vn -0.0000 -0.0000 -1.0000
vn -1.0000 -0.0000 -0.0000
vn -0.0000 -0.0000 1.0000
vn -0.0000 1.0000 -0.0000
vt 0.483517 0.000000
vt 0.000000 0.626374
vt 0.000000 0.000000
vt 0.483517 0.989011
vt 0.000000 0.868132
vt 0.483517 0.868132
vt 0.626374 0.747253
vt 0.000000 0.747253
vt 0.967033 0.626374
vt 0.483517 0.000000
vt 0.483517 0.626374
vt 0.626374 0.626374
vt 0.967033 0.868132
vt 0.483517 0.989011
vt 0.967033 0.989011
vt 0.483517 0.626374
vt 0.000000 0.989011
vt 0.626374 0.868132
vt 0.967033 0.000000
vt 0.483517 0.868132
s 0
usemtl Treasure_3_Material
f 6/1/1 5/2/1 4/3/1
f 6/4/2 1/5/2 7/6/2
f 3/7/3 6/5/3 7/8/3
f 3/9/4 1/10/4 2/11/4
f 1/2/5 5/7/5 2/12/5
f 3/13/6 5/14/6 8/15/6
f 6/1/1 8/16/1 5/2/1
f 6/4/2 4/17/2 1/5/2
f 3/7/3 8/18/3 6/5/3
f 3/9/4 7/19/4 1/10/4
f 1/2/5 4/8/5 5/7/5
f 3/13/6 2/20/6 5/14/6
