# MagicaVoxel @ Ephtracy

# group
o 

# material
mtllib guard_bed.mtl
usemtl palette

# normals
vn -1 0 0
vn 1 0 0
vn 0 0 1
vn 0 0 -1
vn 0 -1 0
vn 0 1 0

# texcoords
vt 0.341797 0.5
vt 0.435547 0.5
vt 0.474609 0.5
vt 0.919922 0.5

# verts
v -1 0 2
v -1 0 1.7
v -1 0 -1.7
v -1 0 -2
v -1 0.3 1.7
v -1 0.3 -1.7
v -1 0.6 1.7
v -1 0.6 -1.7
v -1 1.1 2
v -1 1.1 1.7
v -1 1.1 -1.7
v -1 1.1 -2
v -0.9 0.6 1.7
v -0.9 0.6 -1.7
v -0.9 0.7 1.7
v -0.9 0.7 -1.7
v -0.8 0.3 1.9
v -0.8 0.3 1.8
v -0.8 0.3 -1.8
v -0.8 0.3 -1.9
v -0.8 0.4 1.9
v -0.8 0.4 1.8
v -0.8 0.4 -1.8
v -0.8 0.4 -1.9
v -0.8 0.7 1.9
v -0.8 0.7 1.8
v -0.8 0.7 -1
v -0.8 0.7 -1.7
v -0.8 0.7 -1.8
v -0.8 0.7 -1.9
v -0.8 0.9 -1
v -0.8 0.9 -1.7
v -0.8 1 1.9
v -0.8 1 1.8
v -0.8 1 -1.8
v -0.8 1 -1.9
v -0.4 0.7 -1.5
v -0.4 0.7 -1.6
v -0.4 0.8 -1.5
v -0.4 0.8 -1.6
v -0.3 0.7 -1.7
v -0.3 0.7 -1.8
v -0.3 0.8 -1.7
v -0.3 0.8 -1.8
v 0.3 0.7 -1.6
v 0.3 0.7 -1.7
v 0.3 0.8 -1.6
v 0.3 0.8 -1.7
v 0.6 0.7 -1.5
v 0.6 0.7 -1.6
v 0.6 0.8 -1.5
v 0.6 0.8 -1.6
v 0.7 0.7 -1.3
v 0.7 0.7 -1.5
v 0.7 0.8 -1.3
v 0.7 0.8 -1.5
v 0.8 0 2
v 0.8 0 1.7
v 0.8 0 -1.7
v 0.8 0 -2
v 0.8 0.3 1.9
v 0.8 0.3 1.7
v 0.8 0.3 -1.7
v 0.8 0.3 -1.9
v 0.8 0.4 1.7
v 0.8 0.4 -1.7
v 0.8 0.5 1.8
v 0.8 0.5 1.7
v 0.8 0.5 -1.7
v 0.8 0.5 -1.8
v 0.8 0.6 1.8
v 0.8 0.6 1.7
v 0.8 0.6 -1.7
v 0.8 0.6 -1.8
v 0.8 0.7 1.8
v 0.8 0.7 1.7
v 0.8 0.9 -1.7
v 0.8 0.9 -1.8
v 0.8 1 1.9
v 0.8 1 1.8
v 0.8 1 -1.8
v 0.8 1 -1.9
v 0.8 1.1 2
v 0.8 1.1 1.7
v 0.8 1.1 -1.7
v 0.8 1.1 -2
v -0.9 0.3 1.9
v -0.9 0.3 1.8
v -0.9 0.3 -1.8
v -0.9 0.3 -1.9
v -0.9 0.4 1.9
v -0.9 0.4 1.8
v -0.9 0.4 -1.8
v -0.9 0.4 -1.9
v -0.9 0.7 1.9
v -0.9 0.7 1.8
v -0.9 0.7 -1.8
v -0.9 0.7 -1.9
v -0.9 1 1.9
v -0.9 1 1.8
v -0.9 1 -1.8
v -0.9 1 -1.9
v -0.8 0 2
v -0.8 0 1.7
v -0.8 0 -1.7
v -0.8 0 -2
v -0.8 0.3 1.9
v -0.8 0.3 1.7
v -0.8 0.3 -1.7
v -0.8 0.3 -1.9
v -0.8 0.4 1.7
v -0.8 0.4 -1.7
v -0.8 0.6 1.7
v -0.8 0.6 -1.7
v -0.8 0.7 1.8
v -0.8 0.7 1.7
v -0.8 0.9 -1.7
v -0.8 0.9 -1.8
v -0.8 1 1.9
v -0.8 1 1.8
v -0.8 1 -1.8
v -0.8 1 -1.9
v -0.8 1.1 2
v -0.8 1.1 1.7
v -0.8 1.1 -1.7
v -0.8 1.1 -2
v -0.7 0.5 1.8
v -0.7 0.5 1.7
v -0.7 0.5 -1.7
v -0.7 0.5 -1.8
v -0.7 0.6 1.8
v -0.7 0.6 1.7
v -0.7 0.6 -1.7
v -0.7 0.6 -1.8
v -0.6 0.7 -1.3
v -0.6 0.7 -1.6
v -0.6 0.8 -1.3
v -0.6 0.8 -1.6
v -0.4 0.7 -1.7
v -0.4 0.7 -1.8
v -0.4 0.8 -1.7
v -0.4 0.8 -1.8
v -0.3 0.7 -1.5
v -0.3 0.7 -1.6
v -0.3 0.8 -1.5
v -0.3 0.8 -1.6
v 0.1 0.7 -1.6
v 0.1 0.7 -1.7
v 0.1 0.8 -1.6
v 0.1 0.8 -1.7
v 0.8 0.7 -1
v 0.8 0.7 -1.7
v 0.8 0.9 -1
v 0.8 0.9 -1.7
v 0.9 0.6 1.7
v 0.9 0.6 -1.7
v 0.9 0.7 1.7
v 0.9 0.7 -1.7
v 1 0 2
v 1 0 1.7
v 1 0 -1.7
v 1 0 -2
v 1 0.3 1.7
v 1 0.3 -1.7
v 1 0.6 1.7
v 1 0.6 -1.7
v 1 1.1 2
v 1 1.1 1.7
v 1 1.1 -1.7
v 1 1.1 -2
v -1 0 2
v -1 1.1 2
v -0.8 0 2
v -0.8 1.1 2
v 0.8 0 2
v 0.8 1.1 2
v 1 0 2
v 1 1.1 2
v -0.8 0.3 1.9
v -0.8 1 1.9
v 0.8 0.3 1.9
v 0.8 1 1.9
v -0.9 0.3 1.8
v -0.9 0.4 1.8
v -0.9 0.7 1.8
v -0.9 1 1.8
v -0.8 0.3 1.8
v -0.8 0.4 1.8
v -0.8 0.7 1.8
v -0.8 1 1.8
v -0.8 0.7 -1
v -0.8 0.9 -1
v 0.8 0.7 -1
v 0.8 0.9 -1
v -0.4 0.7 -1.5
v -0.4 0.8 -1.5
v -0.3 0.7 -1.5
v -0.3 0.8 -1.5
v 0.6 0.7 -1.5
v 0.6 0.8 -1.5
v 0.7 0.7 -1.5
v 0.7 0.8 -1.5
v -0.6 0.7 -1.6
v -0.6 0.8 -1.6
v -0.4 0.7 -1.6
v -0.4 0.8 -1.6
v -0.3 0.7 -1.6
v -0.3 0.8 -1.6
v 0.1 0.7 -1.6
v 0.1 0.8 -1.6
v 0.3 0.7 -1.6
v 0.3 0.8 -1.6
v 0.6 0.7 -1.6
v 0.6 0.8 -1.6
v -1 0 -1.7
v -1 0.3 -1.7
v -1 0.6 -1.7
v -1 1.1 -1.7
v -0.9 0.6 -1.7
v -0.9 0.7 -1.7
v -0.8 0 -1.7
v -0.8 0.3 -1.7
v -0.8 0.4 -1.7
v -0.8 0.6 -1.7
v -0.8 0.7 -1.7
v -0.8 0.9 -1.7
v -0.8 1.1 -1.7
v -0.7 0.5 -1.7
v -0.7 0.6 -1.7
v 0.1 0.7 -1.7
v 0.1 0.8 -1.7
v 0.3 0.7 -1.7
v 0.3 0.8 -1.7
v 0.8 0 -1.7
v 0.8 0.3 -1.7
v 0.8 0.4 -1.7
v 0.8 0.5 -1.7
v 0.8 0.7 -1.7
v 0.8 0.9 -1.7
v 0.8 1.1 -1.7
v 0.9 0.6 -1.7
v 0.9 0.7 -1.7
v 1 0 -1.7
v 1 0.3 -1.7
v 1 0.6 -1.7
v 1 1.1 -1.7
v -0.8 0.9 -1.8
v -0.8 1 -1.8
v -0.7 0.5 -1.8
v -0.7 0.6 -1.8
v -0.4 0.7 -1.8
v -0.4 0.8 -1.8
v -0.3 0.7 -1.8
v -0.3 0.8 -1.8
v 0.8 0.5 -1.8
v 0.8 0.6 -1.8
v 0.8 0.9 -1.8
v 0.8 1 -1.8
v -0.9 0.3 -1.9
v -0.9 0.4 -1.9
v -0.9 0.7 -1.9
v -0.9 1 -1.9
v -0.8 0.3 -1.9
v -0.8 0.4 -1.9
v -0.8 0.7 -1.9
v -0.8 1 -1.9
v -0.9 0.3 1.9
v -0.9 0.4 1.9
v -0.9 0.7 1.9
v -0.9 1 1.9
v -0.8 0.3 1.9
v -0.8 0.4 1.9
v -0.8 0.7 1.9
v -0.8 1 1.9
v -0.8 0.7 1.8
v -0.8 1 1.8
v -0.7 0.5 1.8
v -0.7 0.6 1.8
v 0.8 0.5 1.8
v 0.8 0.6 1.8
v 0.8 0.7 1.8
v 0.8 1 1.8
v -1 0 1.7
v -1 0.3 1.7
v -1 0.6 1.7
v -1 1.1 1.7
v -0.9 0.6 1.7
v -0.9 0.7 1.7
v -0.8 0 1.7
v -0.8 0.3 1.7
v -0.8 0.4 1.7
v -0.8 0.6 1.7
v -0.8 0.7 1.7
v -0.8 1.1 1.7
v -0.7 0.5 1.7
v -0.7 0.6 1.7
v 0.8 0 1.7
v 0.8 0.3 1.7
v 0.8 0.4 1.7
v 0.8 0.5 1.7
v 0.8 0.7 1.7
v 0.8 1.1 1.7
v 0.9 0.6 1.7
v 0.9 0.7 1.7
v 1 0 1.7
v 1 0.3 1.7
v 1 0.6 1.7
v 1 1.1 1.7
v -0.6 0.7 -1.3
v -0.6 0.8 -1.3
v 0.7 0.7 -1.3
v 0.7 0.8 -1.3
v -0.4 0.7 -1.7
v -0.4 0.8 -1.7
v -0.3 0.7 -1.7
v -0.3 0.8 -1.7
v -0.9 0.3 -1.8
v -0.9 0.4 -1.8
v -0.9 0.7 -1.8
v -0.9 1 -1.8
v -0.8 0.3 -1.8
v -0.8 0.4 -1.8
v -0.8 0.7 -1.8
v -0.8 1 -1.8
v -0.8 0.3 -1.9
v -0.8 1 -1.9
v 0.8 0.3 -1.9
v 0.8 1 -1.9
v -1 0 -2
v -1 1.1 -2
v -0.8 0 -2
v -0.8 1.1 -2
v 0.8 0 -2
v 0.8 1.1 -2
v 1 0 -2
v 1 1.1 -2
v -1 0 2
v -0.8 0 2
v 0.8 0 2
v 1 0 2
v -1 0 1.7
v -0.8 0 1.7
v 0.8 0 1.7
v 1 0 1.7
v -1 0 -1.7
v -0.8 0 -1.7
v 0.8 0 -1.7
v 1 0 -1.7
v -1 0 -2
v -0.8 0 -2
v 0.8 0 -2
v 1 0 -2
v -0.8 0.3 1.9
v 0.8 0.3 1.9
v -1 0.3 1.7
v -0.8 0.3 1.7
v 0.8 0.3 1.7
v 1 0.3 1.7
v -1 0.3 -1.7
v -0.8 0.3 -1.7
v 0.8 0.3 -1.7
v 1 0.3 -1.7
v -0.8 0.3 -1.9
v 0.8 0.3 -1.9
v -0.9 0.4 1.9
v -0.8 0.4 1.9
v -0.9 0.4 1.8
v -0.8 0.4 1.8
v -0.9 0.4 -1.8
v -0.8 0.4 -1.8
v -0.9 0.4 -1.9
v -0.8 0.4 -1.9
v -0.7 0.6 1.8
v 0.8 0.6 1.8
v -0.8 0.6 1.7
v -0.7 0.6 1.7
v 0.8 0.6 1.7
v -0.8 0.6 -1.7
v -0.7 0.6 -1.7
v 0.8 0.6 -1.7
v -0.7 0.6 -1.8
v 0.8 0.6 -1.8
v -0.6 0.8 -1.3
v 0.7 0.8 -1.3
v -0.4 0.8 -1.5
v -0.3 0.8 -1.5
v 0.6 0.8 -1.5
v 0.7 0.8 -1.5
v -0.6 0.8 -1.6
v -0.4 0.8 -1.6
v -0.3 0.8 -1.6
v 0.1 0.8 -1.6
v 0.3 0.8 -1.6
v 0.6 0.8 -1.6
v -0.4 0.8 -1.7
v -0.3 0.8 -1.7
v 0.1 0.8 -1.7
v 0.3 0.8 -1.7
v -0.4 0.8 -1.8
v -0.3 0.8 -1.8
v -0.9 1 1.9
v -0.8 1 1.9
v -0.9 1 1.8
v -0.8 1 1.8
v -0.9 1 -1.8
v -0.8 1 -1.8
v -0.9 1 -1.9
v -0.8 1 -1.9
v -0.9 0.3 1.9
v -0.8 0.3 1.9
v -0.9 0.3 1.8
v -0.8 0.3 1.8
v -0.9 0.3 -1.8
v -0.8 0.3 -1.8
v -0.9 0.3 -1.9
v -0.8 0.3 -1.9
v -0.8 0.4 1.7
v 0.8 0.4 1.7
v -0.8 0.4 -1.7
v 0.8 0.4 -1.7
v -0.7 0.5 1.8
v 0.8 0.5 1.8
v -0.7 0.5 1.7
v 0.8 0.5 1.7
v -0.7 0.5 -1.7
v 0.8 0.5 -1.7
v -0.7 0.5 -1.8
v 0.8 0.5 -1.8
v -1 0.6 1.7
v -0.9 0.6 1.7
v 0.9 0.6 1.7
v 1 0.6 1.7
v -1 0.6 -1.7
v -0.9 0.6 -1.7
v 0.9 0.6 -1.7
v 1 0.6 -1.7
v -0.9 0.7 1.9
v -0.8 0.7 1.9
v -0.9 0.7 1.8
v -0.8 0.7 1.8
v 0.8 0.7 1.8
v -0.9 0.7 1.7
v -0.8 0.7 1.7
v 0.8 0.7 1.7
v 0.9 0.7 1.7
v -0.8 0.7 -1
v 0.8 0.7 -1
v -0.6 0.7 -1.3
v 0.7 0.7 -1.3
v -0.4 0.7 -1.5
v -0.3 0.7 -1.5
v 0.6 0.7 -1.5
v 0.7 0.7 -1.5
v -0.6 0.7 -1.6
v -0.4 0.7 -1.6
v -0.3 0.7 -1.6
v 0.1 0.7 -1.6
v 0.3 0.7 -1.6
v 0.6 0.7 -1.6
v -0.9 0.7 -1.7
v -0.8 0.7 -1.7
v -0.4 0.7 -1.7
v -0.3 0.7 -1.7
v 0.1 0.7 -1.7
v 0.3 0.7 -1.7
v 0.8 0.7 -1.7
v 0.9 0.7 -1.7
v -0.9 0.7 -1.8
v -0.8 0.7 -1.8
v -0.4 0.7 -1.8
v -0.3 0.7 -1.8
v -0.9 0.7 -1.9
v -0.8 0.7 -1.9
v -0.8 0.9 -1
v 0.8 0.9 -1
v -0.8 0.9 -1.7
v 0.8 0.9 -1.7
v -0.8 0.9 -1.8
v 0.8 0.9 -1.8
v -0.8 1 1.9
v 0.8 1 1.9
v -0.8 1 1.8
v 0.8 1 1.8
v -0.8 1 -1.8
v 0.8 1 -1.8
v -0.8 1 -1.9
v 0.8 1 -1.9
v -1 1.1 2
v -0.8 1.1 2
v 0.8 1.1 2
v 1 1.1 2
v -1 1.1 1.7
v -0.8 1.1 1.7
v 0.8 1.1 1.7
v 1 1.1 1.7
v -1 1.1 -1.7
v -0.8 1.1 -1.7
v 0.8 1.1 -1.7
v 1 1.1 -1.7
v -1 1.1 -2
v -0.8 1.1 -2
v 0.8 1.1 -2
v 1 1.1 -2

# faces
f 5/1/1 2/1/1 1/1/1
f 6/1/1 4/1/1 3/1/1
f 7/1/1 5/1/1 1/1/1
f 7/1/1 6/1/1 5/1/1
f 8/1/1 4/1/1 6/1/1
f 8/1/1 6/1/1 7/1/1
f 9/1/1 7/1/1 1/1/1
f 10/1/1 7/1/1 9/1/1
f 11/1/1 4/1/1 8/1/1
f 12/1/1 4/1/1 11/1/1
f 15/4/1 14/4/1 13/4/1
f 16/4/1 14/4/1 15/4/1
f 21/1/1 18/1/1 17/1/1
f 22/1/1 18/1/1 21/1/1
f 23/1/1 20/1/1 19/1/1
f 24/1/1 20/1/1 23/1/1
f 31/2/1 28/2/1 27/2/1
f 32/2/1 28/2/1 31/2/1
f 33/1/1 26/1/1 25/1/1
f 34/1/1 26/1/1 33/1/1
f 35/1/1 30/1/1 29/1/1
f 36/1/1 30/1/1 35/1/1
f 39/2/1 38/2/1 37/2/1
f 40/2/1 38/2/1 39/2/1
f 43/2/1 42/2/1 41/2/1
f 44/2/1 42/2/1 43/2/1
f 47/2/1 46/2/1 45/2/1
f 48/2/1 46/2/1 47/2/1
f 51/2/1 50/2/1 49/2/1
f 52/2/1 50/2/1 51/2/1
f 55/2/1 54/2/1 53/2/1
f 56/2/1 54/2/1 55/2/1
f 61/1/1 58/1/1 57/1/1
f 62/1/1 58/1/1 61/1/1
f 63/1/1 60/1/1 59/1/1
f 64/1/1 60/1/1 63/1/1
f 68/3/1 66/3/1 65/3/1
f 69/3/1 66/3/1 68/3/1
f 71/1/1 68/1/1 67/1/1
f 72/3/1 69/3/1 68/3/1
f 72/1/1 68/1/1 71/1/1
f 73/1/1 70/1/1 69/1/1
f 73/3/1 69/3/1 72/3/1
f 74/1/1 70/1/1 73/1/1
f 79/1/1 61/1/1 57/1/1
f 80/1/1 76/1/1 75/1/1
f 81/1/1 78/1/1 77/1/1
f 82/1/1 60/1/1 64/1/1
f 83/1/1 80/1/1 79/1/1
f 83/1/1 79/1/1 57/1/1
f 84/1/1 76/1/1 80/1/1
f 84/1/1 80/1/1 83/1/1
f 85/1/1 81/1/1 77/1/1
f 85/1/1 82/1/1 81/1/1
f 86/1/1 60/1/1 82/1/1
f 86/1/1 82/1/1 85/1/1
f 87/1/2 88/1/2 91/1/2
f 91/1/2 88/1/2 92/1/2
f 89/1/2 90/1/2 93/1/2
f 93/1/2 90/1/2 94/1/2
f 95/1/2 96/1/2 99/1/2
f 99/1/2 96/1/2 100/1/2
f 97/1/2 98/1/2 101/1/2
f 101/1/2 98/1/2 102/1/2
f 103/1/2 104/1/2 107/1/2
f 107/1/2 104/1/2 108/1/2
f 105/1/2 106/1/2 109/1/2
f 109/1/2 106/1/2 110/1/2
f 111/3/2 112/3/2 113/3/2
f 113/3/2 112/3/2 114/3/2
f 103/1/2 107/1/2 119/1/2
f 115/1/2 116/1/2 120/1/2
f 117/1/2 118/1/2 121/1/2
f 110/1/2 106/1/2 122/1/2
f 119/1/2 120/1/2 123/1/2
f 103/1/2 119/1/2 123/1/2
f 120/1/2 116/1/2 124/1/2
f 123/1/2 120/1/2 124/1/2
f 117/1/2 121/1/2 125/1/2
f 121/1/2 122/1/2 125/1/2
f 122/1/2 106/1/2 126/1/2
f 125/1/2 122/1/2 126/1/2
f 127/3/2 128/3/2 131/3/2
f 131/3/2 128/3/2 132/3/2
f 129/3/2 130/3/2 133/3/2
f 133/3/2 130/3/2 134/3/2
f 135/2/2 136/2/2 137/2/2
f 137/2/2 136/2/2 138/2/2
f 139/2/2 140/2/2 141/2/2
f 141/2/2 140/2/2 142/2/2
f 143/2/2 144/2/2 145/2/2
f 145/2/2 144/2/2 146/2/2
f 147/2/2 148/2/2 149/2/2
f 149/2/2 148/2/2 150/2/2
f 151/2/2 152/2/2 153/2/2
f 153/2/2 152/2/2 154/2/2
f 155/4/2 156/4/2 157/4/2
f 157/4/2 156/4/2 158/4/2
f 159/1/2 160/1/2 163/1/2
f 161/1/2 162/1/2 164/1/2
f 159/1/2 163/1/2 165/1/2
f 163/1/2 164/1/2 165/1/2
f 164/1/2 162/1/2 166/1/2
f 165/1/2 164/1/2 166/1/2
f 159/1/2 165/1/2 167/1/2
f 167/1/2 165/1/2 168/1/2
f 166/1/2 162/1/2 169/1/2
f 169/1/2 162/1/2 170/1/2
f 173/1/3 172/1/3 171/1/3
f 174/1/3 172/1/3 173/1/3
f 177/1/3 176/1/3 175/1/3
f 178/1/3 176/1/3 177/1/3
f 181/1/3 180/1/3 179/1/3
f 182/1/3 180/1/3 181/1/3
f 187/1/3 184/1/3 183/1/3
f 188/1/3 184/1/3 187/1/3
f 189/1/3 186/1/3 185/1/3
f 190/1/3 186/1/3 189/1/3
f 193/2/3 192/2/3 191/2/3
f 194/2/3 192/2/3 193/2/3
f 197/2/3 196/2/3 195/2/3
f 198/2/3 196/2/3 197/2/3
f 201/2/3 200/2/3 199/2/3
f 202/2/3 200/2/3 201/2/3
f 205/2/3 204/2/3 203/2/3
f 206/2/3 204/2/3 205/2/3
f 209/2/3 208/2/3 207/2/3
f 210/2/3 208/2/3 209/2/3
f 213/2/3 212/2/3 211/2/3
f 214/2/3 212/2/3 213/2/3
f 219/1/3 218/1/3 217/1/3
f 220/1/3 218/1/3 219/1/3
f 221/1/3 216/1/3 215/1/3
f 222/1/3 216/1/3 221/1/3
f 225/1/3 218/1/3 220/1/3
f 226/1/3 218/1/3 225/1/3
f 227/1/3 218/1/3 226/1/3
f 228/3/3 224/3/3 223/3/3
f 229/3/3 224/3/3 228/3/3
f 232/2/3 231/2/3 230/2/3
f 233/2/3 231/2/3 232/2/3
f 236/3/3 228/3/3 223/3/3
f 237/3/3 228/3/3 236/3/3
f 242/1/3 240/1/3 239/1/3
f 242/1/3 239/1/3 238/1/3
f 243/1/3 235/1/3 234/1/3
f 244/1/3 235/1/3 243/1/3
f 245/1/3 242/1/3 241/1/3
f 246/1/3 240/1/3 242/1/3
f 246/1/3 242/1/3 245/1/3
f 253/1/3 252/1/3 251/1/3
f 254/1/3 252/1/3 253/1/3
f 255/1/3 250/1/3 249/1/3
f 256/1/3 250/1/3 255/1/3
f 257/1/3 248/1/3 247/1/3
f 258/1/3 248/1/3 257/1/3
f 263/1/3 260/1/3 259/1/3
f 264/1/3 260/1/3 263/1/3
f 265/1/3 262/1/3 261/1/3
f 266/1/3 262/1/3 265/1/3
f 267/1/4 268/1/4 271/1/4
f 271/1/4 268/1/4 272/1/4
f 269/1/4 270/1/4 273/1/4
f 273/1/4 270/1/4 274/1/4
f 277/1/4 278/1/4 279/1/4
f 279/1/4 278/1/4 280/1/4
f 275/1/4 276/1/4 281/1/4
f 281/1/4 276/1/4 282/1/4
f 285/1/4 286/1/4 287/1/4
f 287/1/4 286/1/4 288/1/4
f 283/1/4 284/1/4 289/1/4
f 289/1/4 284/1/4 290/1/4
f 288/1/4 286/1/4 293/1/4
f 293/1/4 286/1/4 294/1/4
f 291/3/4 292/3/4 295/3/4
f 295/3/4 292/3/4 296/3/4
f 291/3/4 295/3/4 299/3/4
f 299/3/4 295/3/4 300/3/4
f 301/1/4 302/1/4 304/1/4
f 297/1/4 298/1/4 305/1/4
f 305/1/4 298/1/4 306/1/4
f 303/1/4 304/1/4 307/1/4
f 304/1/4 302/1/4 308/1/4
f 307/1/4 304/1/4 308/1/4
f 309/2/4 310/2/4 311/2/4
f 311/2/4 310/2/4 312/2/4
f 313/2/4 314/2/4 315/2/4
f 315/2/4 314/2/4 316/2/4
f 317/1/4 318/1/4 321/1/4
f 321/1/4 318/1/4 322/1/4
f 319/1/4 320/1/4 323/1/4
f 323/1/4 320/1/4 324/1/4
f 325/1/4 326/1/4 327/1/4
f 327/1/4 326/1/4 328/1/4
f 329/1/4 330/1/4 331/1/4
f 331/1/4 330/1/4 332/1/4
f 333/1/4 334/1/4 335/1/4
f 335/1/4 334/1/4 336/1/4
f 341/1/5 338/1/5 337/1/5
f 342/1/5 338/1/5 341/1/5
f 343/1/5 340/1/5 339/1/5
f 344/1/5 340/1/5 343/1/5
f 349/1/5 346/1/5 345/1/5
f 350/1/5 346/1/5 349/1/5
f 351/1/5 348/1/5 347/1/5
f 352/1/5 348/1/5 351/1/5
f 356/1/5 354/1/5 353/1/5
f 357/1/5 354/1/5 356/1/5
f 359/1/5 356/1/5 355/1/5
f 359/1/5 358/1/5 357/1/5
f 359/1/5 357/1/5 356/1/5
f 360/1/5 358/1/5 359/1/5
f 361/1/5 358/1/5 360/1/5
f 362/1/5 358/1/5 361/1/5
f 363/1/5 361/1/5 360/1/5
f 364/1/5 361/1/5 363/1/5
f 367/1/5 366/1/5 365/1/5
f 368/1/5 366/1/5 367/1/5
f 371/1/5 370/1/5 369/1/5
f 372/1/5 370/1/5 371/1/5
f 376/1/5 374/1/5 373/1/5
f 377/1/5 374/1/5 376/1/5
f 378/4/5 376/4/5 375/4/5
f 378/4/5 377/4/5 376/4/5
f 379/4/5 377/4/5 378/4/5
f 380/4/5 377/4/5 379/4/5
f 381/3/5 380/3/5 379/3/5
f 382/3/5 380/3/5 381/3/5
f 385/2/5 384/2/5 383/2/5
f 386/2/5 384/2/5 385/2/5
f 387/2/5 384/2/5 386/2/5
f 388/2/5 384/2/5 387/2/5
f 389/2/5 385/2/5 383/2/5
f 390/2/5 385/2/5 389/2/5
f 391/2/5 387/2/5 386/2/5
f 392/2/5 387/2/5 391/2/5
f 393/2/5 387/2/5 392/2/5
f 394/2/5 387/2/5 393/2/5
f 397/2/5 393/2/5 392/2/5
f 398/2/5 393/2/5 397/2/5
f 399/2/5 396/2/5 395/2/5
f 400/2/5 396/2/5 399/2/5
f 403/1/5 402/1/5 401/1/5
f 404/1/5 402/1/5 403/1/5
f 407/1/5 406/1/5 405/1/5
f 408/1/5 406/1/5 407/1/5
f 409/1/6 410/1/6 411/1/6
f 411/1/6 410/1/6 412/1/6
f 413/1/6 414/1/6 415/1/6
f 415/1/6 414/1/6 416/1/6
f 417/1/6 418/1/6 419/1/6
f 419/1/6 418/1/6 420/1/6
f 421/3/6 422/3/6 423/3/6
f 423/3/6 422/3/6 424/3/6
f 425/3/6 426/3/6 427/3/6
f 427/3/6 426/3/6 428/3/6
f 429/1/6 430/1/6 433/1/6
f 433/1/6 430/1/6 434/1/6
f 431/1/6 432/1/6 435/1/6
f 435/1/6 432/1/6 436/1/6
f 437/1/6 438/1/6 439/1/6
f 439/1/6 438/1/6 440/1/6
f 440/1/6 441/1/6 443/1/6
f 443/1/6 441/1/6 444/1/6
f 442/4/6 443/4/6 446/4/6
f 444/4/6 445/4/6 446/4/6
f 443/4/6 444/4/6 446/4/6
f 446/4/6 445/4/6 447/4/6
f 448/4/6 449/4/6 450/4/6
f 450/4/6 449/4/6 451/4/6
f 451/4/6 449/4/6 452/4/6
f 452/4/6 449/4/6 453/4/6
f 448/4/6 450/4/6 454/4/6
f 454/4/6 450/4/6 455/4/6
f 451/4/6 452/4/6 456/4/6
f 456/4/6 452/4/6 457/4/6
f 457/4/6 452/4/6 458/4/6
f 458/4/6 452/4/6 459/4/6
f 442/4/6 446/4/6 460/4/6
f 460/4/6 446/4/6 461/4/6
f 457/4/6 458/4/6 464/4/6
f 464/4/6 458/4/6 465/4/6
f 447/4/6 445/4/6 466/4/6
f 466/4/6 445/4/6 467/4/6
f 462/3/6 463/3/6 470/3/6
f 470/3/6 463/3/6 471/3/6
f 468/1/6 469/1/6 472/1/6
f 472/1/6 469/1/6 473/1/6
f 474/2/6 475/2/6 476/2/6
f 476/2/6 475/2/6 477/2/6
f 476/2/6 477/2/6 478/2/6
f 478/2/6 477/2/6 479/2/6
f 480/1/6 481/1/6 482/1/6
f 482/1/6 481/1/6 483/1/6
f 484/1/6 485/1/6 486/1/6
f 486/1/6 485/1/6 487/1/6
f 488/1/6 489/1/6 492/1/6
f 492/1/6 489/1/6 493/1/6
f 490/1/6 491/1/6 494/1/6
f 494/1/6 491/1/6 495/1/6
f 496/1/6 497/1/6 500/1/6
f 500/1/6 497/1/6 501/1/6
f 498/1/6 499/1/6 502/1/6
f 502/1/6 499/1/6 503/1/6
